<svg width="308" height="225" viewBox="0 0 308 225" fill="none" xmlns="http://www.w3.org/2000/svg">
<rect x="134.08" y="72.0199" width="173.92" height="26.0498" rx="13.0249" fill="#D2E7E8"/>
<rect x="175.453" y="108.03" width="76.6169" height="11.4925" rx="5.74627" fill="#E0F3F3"/>
<rect x="16.0896" y="141.741" width="76.6169" height="11.4925" rx="5.74627" fill="#E0F3F3"/>
<rect y="160.895" width="173.92" height="40.607" rx="20.3035" fill="#D2E7E8"/>
<path fill-rule="evenodd" clip-rule="evenodd" d="M91.9336 30.7303C89.9802 28.4374 88.6581 25.6274 88.879 22.4788C89.5156 13.4066 102.144 15.4024 104.601 19.9812C107.057 24.56 106.765 36.1747 103.591 36.993C102.324 37.3194 99.6272 36.5199 96.8821 34.8653L98.6052 47.0555H88.431L91.9336 30.7303Z" fill="#B28B67"/>
<path fill-rule="evenodd" clip-rule="evenodd" d="M98.8018 14.7039C97.4609 14.484 93.8504 14.3328 93.1845 14.3329C92.759 14.3329 92.2979 14.4301 92.0459 14.0394C91.8395 13.7194 91.9151 13.1783 91.8535 12.8071C91.782 12.3758 91.6804 11.95 91.5777 11.5254C91.2853 10.317 90.8432 9.1673 90.2245 8.08793C89.0637 6.06289 87.3631 4.47667 85.2163 3.55365C82.8455 2.53449 80.1628 2.30112 77.6127 2.50784C74.8837 2.72901 72.4134 3.62987 69.8369 4.47764C67.3815 5.28549 64.8099 5.60348 62.2418 5.20897C59.6545 4.81154 57.6995 3.4092 55.5171 2.0782C53.2829 0.715585 50.7297 -0.175616 48.0886 0.02925C45.6231 0.220549 43.3508 1.23853 41.3121 2.59842C39.4047 3.87075 37.8309 5.40154 36.9423 7.556C35.9864 9.87355 35.9873 12.4174 37.5592 14.4656C39.8376 17.4345 44.0674 18.2022 47.5865 18.1259C49.6219 18.0819 51.621 17.7103 53.5427 17.0344C56.1056 16.1329 58.3203 14.6051 60.7179 13.3654C61.8431 12.7837 63.0062 12.306 64.2253 11.9618C65.4083 11.6277 66.5735 11.4745 67.6446 12.1892C68.7776 12.9452 69.793 13.6878 71.0892 14.1611C72.3328 14.6151 73.65 14.8691 74.9748 14.8588C77.5525 14.8389 80.0936 14.0358 82.5972 13.4978C84.6388 13.0592 86.8232 12.622 88.9046 13.0437C89.7731 13.2196 91.0418 13.5829 91.3555 14.4855C86.0757 15.4424 84.0021 21.972 85.4906 26.7653C86.2939 29.3524 91.1228 32.3767 93.0004 31.0166C94.1898 30.155 93.4677 29.0238 93.0004 28.277C92.1054 26.847 91.7992 25.01 93.4552 24.0144C94.8837 23.1557 96.3857 25.1949 96.4141 25.1926C96.8067 25.1617 100.199 23.243 102.537 20.4433C104.842 20.58 105.192 19.0596 104.642 17.8161C104.091 16.5727 100.655 15.0079 98.8018 14.7039Z" fill="#191847"/>
<path fill-rule="evenodd" clip-rule="evenodd" d="M85.8918 82.2507L117.392 134.913L141.008 179.435H146.095L106.526 82.2507L85.8918 82.2507Z" fill="#997659"/>
<path fill-rule="evenodd" clip-rule="evenodd" d="M137.898 177.38C137.424 178.646 137.186 179.593 137.186 180.222C137.186 180.986 137.314 182.102 137.569 183.568C138.455 183.568 146.425 183.568 161.479 183.568C162.1 181.514 161.741 180.405 160.403 180.241C159.064 180.078 157.952 179.93 157.066 179.798L145.953 174.843C145.739 174.748 145.489 174.844 145.393 175.058C145.392 175.062 145.39 175.065 145.389 175.069L144.674 176.802C143.435 177.38 142.428 177.669 141.653 177.669C141.024 177.669 140.154 177.415 139.045 176.906L139.045 176.906C138.619 176.711 138.116 176.898 137.921 177.324C137.913 177.342 137.905 177.361 137.898 177.38Z" fill="#FF9B21"/>
<path fill-rule="evenodd" clip-rule="evenodd" d="M134.449 172.306L144.259 169.338C139.961 156.49 134.693 142.351 128.456 126.921C122.219 111.491 115.52 96.6013 108.36 82.2507H80.654C88.6144 100.404 97.0536 116.898 105.971 131.733C114.889 146.569 124.382 160.093 134.449 172.306Z" fill="#DB2721"/>
<path fill-rule="evenodd" clip-rule="evenodd" d="M83.8216 82.2507C80.8486 100.757 75.1144 124.4 74.5733 125.13C74.2125 125.616 61.2249 129.968 35.6103 138.186L36.7091 142.672C67.2544 138.264 83.3492 134.845 84.9934 132.414C87.4598 128.767 99.7746 99.9551 104.544 82.2507H83.8216Z" fill="#B28B67"/>
<path fill-rule="evenodd" clip-rule="evenodd" d="M44.6143 134.309L46.5497 141.533C69.3958 143.537 83.3941 142.089 88.5446 137.189C93.6951 132.29 99.5652 113.977 106.155 82.2507H79.7357C75.5606 108.23 73.2265 121.765 72.7333 122.856C72.2401 123.947 62.8671 127.764 44.6143 134.309Z" fill="#FF4133"/>
<path fill-rule="evenodd" clip-rule="evenodd" d="M37.0665 136.354C35.7001 136.13 34.6967 136.077 34.0563 136.197C33.2775 136.342 32.1615 136.678 30.7085 137.205C30.8517 138.074 32.1392 145.877 34.5707 160.616C36.7638 160.835 37.8357 160.274 37.7863 158.932C37.737 157.59 37.708 156.473 37.6994 155.581L40.9518 143.761C41.0143 143.533 40.876 143.306 40.6427 143.253C40.6387 143.252 40.6347 143.251 40.6307 143.251L38.7499 142.88C37.9606 141.776 37.5034 140.845 37.3783 140.086C37.2766 139.47 37.3952 138.57 37.734 137.388L37.734 137.388C37.8641 136.934 37.5924 136.477 37.1272 136.367C37.1072 136.362 37.0869 136.358 37.0665 136.354Z" fill="#FF9B21"/>
<path fill-rule="evenodd" clip-rule="evenodd" d="M122.367 75.5144L134.376 87.2295C137.87 88.7199 140.733 90.3657 142.964 92.1667C143.466 92.7721 144.013 93.9321 141.651 93.413C139.29 92.8939 136.783 92.4542 136.339 93.2221C135.895 93.99 137.203 95.1668 136.383 96.1718C135.836 96.8418 133.997 94.7106 130.866 89.7782L118.378 82.4158L122.367 75.5144ZM69.0643 77.1666L77.9232 77.2014C72.4532 94.8594 69.5003 104.229 69.0643 105.309C68.0834 107.74 70.1592 111.442 71.0469 113.432C68.1557 114.726 68.4637 109.935 64.8166 111.631C61.4877 113.18 58.9554 115.986 55.1093 113.613C54.6364 113.321 54.1182 112.223 55.3702 111.364C58.4893 109.226 62.9842 105.482 63.5915 104.25C64.4197 102.57 66.244 93.5422 69.0643 77.1666Z" fill="#B28B67"/>
<path fill-rule="evenodd" clip-rule="evenodd" d="M94.2399 39.9938L97.9056 39.3651C104.217 55.1308 115.235 69.4561 130.961 82.3407L119.078 96.778C103.354 78.432 93.6613 59.5039 94.2399 39.9938Z" fill="#191847"/>
<path fill-rule="evenodd" clip-rule="evenodd" d="M78.26 86.0604H110.902C103.34 67.6729 99.5584 52.0528 99.5584 39.2004L89.7119 37.7333C81.9735 50.179 79.7882 65.5021 78.26 86.0604Z" fill="#DDE3E9"/>
<path fill-rule="evenodd" clip-rule="evenodd" d="M89.5035 37.7402C89.5048 37.7379 89.5061 37.7356 89.5074 37.7333H90.1501C90.9192 37.7598 92.0906 37.8075 93.6644 37.8764L96.0436 44.6758C96.2953 52.9658 97.765 69.6725 100.453 94.7958H79.0553C79.1114 96.5309 79.2039 98.2823 79.3328 100.05H63.4227C65.8026 73.2003 74.4936 52.4281 89.4956 37.7333L89.5035 37.7402V37.7402Z" fill="#2F3676"/>
<path fill-rule="evenodd" clip-rule="evenodd" d="M80.4689 72.5938C81.0778 83.4101 82.6025 90.8665 85.0429 94.9629H79.0609C78.7991 87.1809 79.2684 79.7245 80.4689 72.5938V72.5938Z" fill="black" fill-opacity="0.1"/>
<path fill-rule="evenodd" clip-rule="evenodd" d="M83.818 81.8213L94.369 76.9162V81.8213H83.818Z" fill="white" fill-opacity="0.2"/>
<path fill-rule="evenodd" clip-rule="evenodd" d="M253.701 73.2108C256.197 71.6177 258.177 69.3564 258.683 66.3317C260.14 57.6166 246.971 55.8525 243.44 59.4502C239.909 63.048 237.517 74.0547 240.522 75.7396C241.721 76.4115 244.62 76.4374 247.765 75.6728L243.212 86.6398L253.45 89.5731L253.701 73.2108Z" fill="#B28B67"/>
<path fill-rule="evenodd" clip-rule="evenodd" d="M250.038 64.7309C248.368 69.7341 246.709 72.0041 245.061 71.541C242.59 70.8463 240.87 68.7576 239.785 68.4528C238.995 68.2306 238.933 69.2254 239.281 70.0736C239.568 70.7733 241.533 71.9224 241.307 72.8189C241.082 73.7153 239.593 72.5542 239.459 73.0858C239.238 73.9653 238.529 75.5365 240.126 75.9856C241.743 76.44 246.52 77.18 247.892 75.1107C248.777 73.7752 249.88 70.8025 251.201 66.1924C251.302 66.2089 251.403 66.2312 251.505 66.2596C252.89 66.649 253.743 68.0375 253.409 69.361C253.24 70.0329 252.798 70.5588 252.222 70.8629C252.606 71.8087 253.05 72.8091 253.583 73.8622C256.787 73.0442 260.047 68.9299 258.446 63.647C258.246 61.2233 256.831 59.5608 254.946 58.4438C253.472 57.3283 251.789 56.7763 250.255 56.7653C247.382 56.2048 244.662 56.3184 243.827 56.6052C243.186 59.1514 243.512 60.052 247.939 61.2251C248.885 62.0766 249.482 63.2524 250.038 64.7309Z" fill="#191847"/>
<path fill-rule="evenodd" clip-rule="evenodd" d="M247.916 123.794L227.161 176.253L213.241 220.603H207.744L229.025 123.794L247.916 123.794Z" fill="#997659"/>
<path fill-rule="evenodd" clip-rule="evenodd" d="M252.095 123.794C252.316 142.228 255.539 167.047 256.054 168.196C256.397 168.962 268.248 178.704 291.607 197.422L287.821 201.468C260.26 185.42 245.841 176.326 244.566 174.185C242.653 170.975 236.424 141.43 231.424 123.794H252.095Z" fill="#B28B67"/>
<path fill-rule="evenodd" clip-rule="evenodd" d="M292.072 196.081C293.355 196.543 294.241 196.978 294.728 197.387C295.321 197.884 296.105 198.707 297.08 199.855C296.515 200.532 291.436 206.616 281.845 218.106C279.857 217.244 279.225 216.249 279.951 215.121C280.677 213.993 281.271 213.048 281.733 212.286L284.972 200.581C285.035 200.355 285.269 200.227 285.495 200.293C285.499 200.294 285.503 200.295 285.507 200.296L287.306 200.878C288.544 200.308 289.409 199.728 289.903 199.136C290.304 198.656 290.661 197.827 290.974 196.649L290.974 196.649C291.093 196.197 291.559 195.935 292.013 196.063C292.033 196.068 292.052 196.074 292.072 196.081Z" fill="#E4E4E4"/>
<path fill-rule="evenodd" clip-rule="evenodd" d="M215.491 218.597C215.965 219.863 216.201 220.81 216.201 221.439C216.201 222.203 216.074 223.319 215.82 224.785C214.935 224.785 206.985 224.785 191.97 224.785C191.35 222.731 191.708 221.622 193.043 221.459C194.379 221.295 195.488 221.147 196.371 221.015L207.456 216.061C207.67 215.965 207.92 216.061 208.015 216.275C208.016 216.279 208.018 216.282 208.019 216.286L208.732 218.019C209.968 218.597 210.973 218.886 211.746 218.886C212.373 218.886 213.241 218.632 214.347 218.124L214.347 218.124C214.772 217.928 215.274 218.115 215.468 218.541C215.477 218.559 215.484 218.578 215.491 218.597Z" fill="#E4E4E4"/>
<path fill-rule="evenodd" clip-rule="evenodd" d="M233.961 216.035L207.827 213.202L227.195 123.794H250.603L233.961 216.035Z" fill="#69A1AC"/>
<path fill-rule="evenodd" clip-rule="evenodd" d="M286.201 190.895L269.058 211.159C251.002 191.465 240.476 178.615 237.478 172.608C234.481 166.602 231.786 150.33 229.395 123.794H255.747C257.054 147.139 257.935 159.355 258.389 160.442C258.844 161.528 268.115 171.679 286.201 190.895Z" fill="#89C5CC"/>
<path fill-rule="evenodd" clip-rule="evenodd" d="M215.089 114.336L200.163 121.289C196.381 121.552 193.157 122.157 190.494 123.105C189.836 123.501 188.974 124.393 191.387 124.663C193.801 124.933 196.331 125.321 196.532 126.166C196.732 127.011 195.136 127.677 195.628 128.858C195.956 129.646 198.34 128.272 202.78 124.736L216.893 121.928L215.089 114.336ZM266.395 124.279L257.626 122.671C260.282 140.502 261.742 149.973 262.005 151.083C262.596 153.58 259.965 156.722 258.776 158.452C261.435 160.22 261.877 155.6 265.22 157.891C268.272 159.983 270.339 163.125 274.514 161.577C275.027 161.386 275.711 160.436 274.607 159.386C271.855 156.772 267.992 152.374 267.584 151.088C267.027 149.334 266.63 140.398 266.395 124.279Z" fill="#B28B67"/>
<path fill-rule="evenodd" clip-rule="evenodd" d="M248.18 83.2734L244.608 81.9784C229.132 90.7603 219.971 111.489 201.386 119.895L204.619 125.447C234.147 127.424 245.677 102.206 248.18 83.2734Z" fill="#E87613"/>
<path fill-rule="evenodd" clip-rule="evenodd" d="M256.603 130.537C241.866 127.761 231.027 125.72 224.084 124.412C222.598 124.132 223.217 122.11 223.602 121.104C228.054 109.489 239.858 98.2875 242.666 81.0889L252.278 81.4334C258.067 94.9595 258.325 110.319 256.603 130.537Z" fill="#DDE3E9"/>
<path fill-rule="evenodd" clip-rule="evenodd" d="M261.714 95.3638C263.143 95.2415 264.37 94.5604 265.396 93.3204C269.816 87.9752 269.113 84.4426 265.614 82.667C262.114 80.8914 258.47 82.5087 252.613 81.4075C252.294 81.3476 251.999 81.312 251.728 81.3007L248.755 80.9091C235.778 106.976 230.429 124.99 232.707 134.95L258.391 139.778C259.352 143.49 260.337 146.645 261.345 149.245L268.343 150.56C272.364 130.128 270.154 111.729 261.714 95.3638Z" fill="#FF9B21"/>
<path fill-rule="evenodd" clip-rule="evenodd" d="M254.805 124.637C252.935 131.002 250.852 135.484 248.558 138.085L258.068 139.875C256.949 135.551 255.861 130.472 254.805 124.637Z" fill="black" fill-opacity="0.1"/>
<path fill-rule="evenodd" clip-rule="evenodd" d="M184.188 39.75V61.625C184.188 62.2052 184.418 62.7616 184.828 63.1718C185.238 63.582 185.795 63.8125 186.375 63.8125H212.625C213.205 63.8125 213.762 63.582 214.172 63.1718C214.582 62.7616 214.812 62.2052 214.812 61.625V39.75H184.188ZM186.375 33.1875C185.215 33.1875 184.102 33.6484 183.281 34.4689C182.461 35.2894 182 36.4022 182 37.5625V61.625C182 62.7853 182.461 63.8981 183.281 64.7186C184.102 65.5391 185.215 66 186.375 66H212.625C213.785 66 214.898 65.5391 215.719 64.7186C216.539 63.8981 217 62.7853 217 61.625V37.5625C217 36.4022 216.539 35.2894 215.719 34.4689C214.898 33.6484 213.785 33.1875 212.625 33.1875H186.375Z" fill="#02BEB2"/>
<path fill-rule="evenodd" clip-rule="evenodd" d="M189.656 31C189.946 31 190.225 31.1152 190.43 31.3204C190.635 31.5255 190.75 31.8037 190.75 32.0938V33.1875C190.75 33.4776 190.635 33.7558 190.43 33.9609C190.225 34.166 189.946 34.2812 189.656 34.2812C189.366 34.2812 189.088 34.166 188.883 33.9609C188.678 33.7558 188.562 33.4776 188.562 33.1875V32.0938C188.562 31.8037 188.678 31.5255 188.883 31.3204C189.088 31.1152 189.366 31 189.656 31V31ZM209.344 31C209.634 31 209.912 31.1152 210.117 31.3204C210.322 31.5255 210.437 31.8037 210.437 32.0938V33.1875C210.437 33.4776 210.322 33.7558 210.117 33.9609C209.912 34.166 209.634 34.2812 209.344 34.2812C209.054 34.2812 208.775 34.166 208.57 33.9609C208.365 33.7558 208.25 33.4776 208.25 33.1875V32.0938C208.25 31.8037 208.365 31.5255 208.57 31.3204C208.775 31.1152 209.054 31 209.344 31V31Z" fill="#02BEB2"/>
<path d="M206.062 45.2188C206.062 44.9287 206.178 44.6505 206.383 44.4454C206.588 44.2402 206.866 44.125 207.156 44.125H209.344C209.634 44.125 209.912 44.2402 210.117 44.4454C210.322 44.6505 210.437 44.9287 210.437 45.2188V47.4063C210.437 47.6963 210.322 47.9745 210.117 48.1797C209.912 48.3848 209.634 48.5 209.344 48.5H207.156C206.866 48.5 206.588 48.3848 206.383 48.1797C206.178 47.9745 206.062 47.6963 206.062 47.4063V45.2188ZM199.5 45.2188C199.5 44.9287 199.615 44.6505 199.82 44.4454C200.025 44.2402 200.304 44.125 200.594 44.125H202.781C203.071 44.125 203.35 44.2402 203.555 44.4454C203.76 44.6505 203.875 44.9287 203.875 45.2188V47.4063C203.875 47.6963 203.76 47.9745 203.555 48.1797C203.35 48.3848 203.071 48.5 202.781 48.5H200.594C200.304 48.5 200.025 48.3848 199.82 48.1797C199.615 47.9745 199.5 47.6963 199.5 47.4063V45.2188ZM188.562 51.7813C188.562 51.4912 188.678 51.213 188.883 51.0079C189.088 50.8027 189.366 50.6875 189.656 50.6875H191.844C192.134 50.6875 192.412 50.8027 192.617 51.0079C192.822 51.213 192.937 51.4912 192.937 51.7813V53.9688C192.937 54.2588 192.822 54.537 192.617 54.7422C192.412 54.9473 192.134 55.0625 191.844 55.0625H189.656C189.366 55.0625 189.088 54.9473 188.883 54.7422C188.678 54.537 188.562 54.2588 188.562 53.9688V51.7813ZM195.125 51.7813C195.125 51.4912 195.24 51.213 195.445 51.0079C195.65 50.8027 195.929 50.6875 196.219 50.6875H198.406C198.696 50.6875 198.975 50.8027 199.18 51.0079C199.385 51.213 199.5 51.4912 199.5 51.7813V53.9688C199.5 54.2588 199.385 54.537 199.18 54.7422C198.975 54.9473 198.696 55.0625 198.406 55.0625H196.219C195.929 55.0625 195.65 54.9473 195.445 54.7422C195.24 54.537 195.125 54.2588 195.125 53.9688V51.7813Z" fill="#02BEB2"/>
<path d="M170.856 55.7388H160.129C157.904 55.7388 156.107 57.5355 156.107 59.7612V81.2139C156.107 83.4396 157.904 85.2363 160.129 85.2363H170.856C173.081 85.2363 174.878 83.4396 174.878 81.2139V59.7612C174.878 57.5355 173.081 55.7388 170.856 55.7388ZM168.174 82.5547H162.811V81.2139H168.174V82.5547ZM172.532 78.5323H158.453V59.7612H172.532V78.5323Z" fill="#02BEB2"/>
</svg>
