<svg width="24" height="24" viewBox="0 0 24 24" fill="none" xmlns="http://www.w3.org/2000/svg">
<path d="M12.5156 22.2188L12.4781 22.2127C12.4833 22.2167 12.4895 22.2194 12.4961 22.2205C12.5026 22.2215 12.5093 22.221 12.5156 22.2188Z" fill="black" fill-opacity="0.6"/>
<path d="M21.0422 8.80219C21.0315 8.74563 21.0022 8.69426 20.959 8.65625C20.9158 8.61823 20.8611 8.59574 20.8036 8.59235C20.7462 8.58895 20.6892 8.60485 20.6418 8.63752C20.5944 8.67019 20.5593 8.71775 20.542 8.77266C20.5255 8.82479 20.4928 8.87033 20.4488 8.90276C20.4048 8.93518 20.3516 8.95281 20.2969 8.95312H19.5717C19.5248 8.95317 19.4788 8.94036 19.4386 8.91609L18.3895 8.28703C18.3494 8.26276 18.3033 8.24995 18.2564 8.25H16.5783C16.5272 8.24995 16.4773 8.26512 16.4348 8.29359L14.3653 9.67312C14.3295 9.69695 14.3003 9.72931 14.2801 9.76728C14.26 9.80525 14.2497 9.84764 14.25 9.89062V11.8472C14.25 11.8941 14.2627 11.9401 14.2868 11.9803C14.3109 12.0205 14.3455 12.0534 14.3869 12.0755L17.1005 13.5239C17.1412 13.5458 17.1754 13.5782 17.1995 13.6178C17.2235 13.6574 17.2366 13.7026 17.2373 13.7489L17.25 14.85C17.2507 14.8956 17.2635 14.9402 17.2869 14.9793C17.3104 15.0183 17.3437 15.0506 17.3836 15.0726L18.4739 15.6759C18.5143 15.6984 18.548 15.7312 18.5715 15.771C18.595 15.8108 18.6074 15.8561 18.6075 15.9023V18.1805C18.6075 18.2302 18.6219 18.279 18.6489 18.3208C18.6759 18.3626 18.7144 18.3958 18.7598 18.4162C18.8052 18.4367 18.8555 18.4437 18.9047 18.4363C18.9539 18.4289 19 18.4074 19.0373 18.3745C19.477 17.9873 20.1075 17.422 20.1914 17.2926C20.3302 17.078 20.4603 16.8581 20.5819 16.6331C20.8336 16.1669 21.0468 15.6809 21.2194 15.18C21.8137 13.4592 21.3441 10.3659 21.0422 8.80219Z" fill="#666666"/>
<path d="M13.425 14.1939L10.5502 12.0376C10.5177 12.0133 10.4783 12.0001 10.4377 12.0001H9.07363C9.05029 12.0001 9.02718 11.9955 9.00563 11.9866C8.98407 11.9777 8.96449 11.9646 8.948 11.9481L8.30488 11.3049C8.28745 11.2875 8.26677 11.2737 8.24401 11.2643C8.22124 11.2549 8.19685 11.2501 8.17222 11.2501H5.67894C5.6438 11.2501 5.60945 11.2397 5.58024 11.2202C5.55102 11.2006 5.52825 11.1729 5.5148 11.1404C5.50135 11.108 5.49784 11.0722 5.50469 11.0378C5.51155 11.0033 5.52847 10.9717 5.55331 10.9468L5.948 10.5521C5.96448 10.5356 5.98407 10.5225 6.00563 10.5136C6.02718 10.5047 6.05029 10.5001 6.07363 10.5001H7.59097C7.67269 10.5001 7.75218 10.4734 7.81733 10.4241C7.88249 10.3747 7.92974 10.3055 7.95191 10.2268L8.27488 9.07838C8.28176 9.0537 8.29364 9.0307 8.30976 9.01078C8.32588 8.99087 8.34592 8.97447 8.36863 8.9626L9.65628 8.29979C9.68526 8.28482 9.70955 8.26216 9.7265 8.23429C9.74345 8.20643 9.7524 8.17444 9.75238 8.14182V7.55588C9.75243 7.51953 9.76355 7.48405 9.78425 7.45416L10.4686 6.46885C10.4892 6.43925 10.5183 6.41667 10.5521 6.40416L11.5097 6.04463C11.5436 6.03194 11.5728 6.0092 11.5934 5.97946C11.614 5.94973 11.625 5.91441 11.625 5.87823V5.34385C11.625 5.31455 11.6178 5.2857 11.604 5.25986C11.5902 5.23403 11.5702 5.212 11.5458 5.19573L10.5858 4.55729C10.5594 4.53994 10.529 4.52984 10.4974 4.52803C10.4659 4.52622 10.4345 4.53276 10.4063 4.54698L9.09941 5.20041C9.06951 5.21518 9.03606 5.2212 9.00289 5.2178C8.96972 5.2144 8.93819 5.20172 8.91191 5.1812L8.29222 4.69135C8.27108 4.67434 8.25409 4.65273 8.24258 4.62816C8.23106 4.60359 8.2253 4.57671 8.22576 4.54958C8.22621 4.52245 8.23285 4.49578 8.24518 4.4716C8.25752 4.44743 8.27521 4.42639 8.29691 4.4101L8.80035 4.03932C8.82314 4.0226 8.8416 4.00068 8.85419 3.97537C8.86678 3.95007 8.87313 3.92212 8.87272 3.89386C8.87231 3.8656 8.86514 3.83784 8.85181 3.81292C8.83849 3.78799 8.8194 3.76661 8.79613 3.75057L8.01191 3.20354C7.98476 3.18443 7.95279 3.17332 7.91964 3.1715C7.88649 3.16968 7.85349 3.17721 7.82441 3.19323C7.54082 3.34838 6.70878 3.80776 6.41347 4.01448C5.04711 4.97266 3.9475 6.26328 3.21847 7.76448C3.13316 7.94073 3.02769 8.12026 3.01738 8.31385C3.00706 8.50745 2.85519 8.93963 2.79191 9.11448C2.78337 9.13811 2.77996 9.16329 2.7819 9.18834C2.78384 9.2134 2.79109 9.23775 2.80316 9.25979L4.47613 12.3339C4.49118 12.3618 4.51354 12.3851 4.54081 12.4014L6.30097 13.4579C6.32381 13.4715 6.34329 13.4901 6.35797 13.5122C6.37266 13.5344 6.38218 13.5596 6.38581 13.5859L6.73832 16.1424C6.74176 16.1669 6.75024 16.1905 6.76323 16.2115C6.77622 16.2326 6.79344 16.2507 6.81378 16.2648L8.18722 17.2089C8.22701 17.2362 8.25471 17.2778 8.26456 17.3251L8.993 20.7845C8.99708 20.8048 9.00487 20.8242 9.01597 20.8417C9.08441 20.9523 9.35722 21.3573 9.68628 21.4173C9.65582 21.4257 9.62863 21.4449 9.59816 21.4539C9.6772 21.4678 9.75544 21.4859 9.83253 21.5082C9.92628 21.5335 10.02 21.5551 10.1138 21.5753C10.2605 21.6043 10.275 21.6268 10.3453 21.4965C10.4391 21.3221 10.5464 21.2621 10.6266 21.2406C10.6597 21.2329 10.6899 21.2161 10.7139 21.1921C10.7379 21.1681 10.7546 21.1377 10.7621 21.1046L11.2341 18.9165C11.244 18.8706 11.2708 18.8302 11.3091 18.8031L13.4185 17.3078C13.443 17.2904 13.463 17.2674 13.4768 17.2408C13.4905 17.2141 13.4977 17.1845 13.4977 17.1545V14.3439C13.498 14.3149 13.4915 14.2864 13.4789 14.2603C13.4663 14.2343 13.4479 14.2116 13.425 14.1939Z" fill="#666666"/>
<path d="M12.2813 2.25C12.2813 2.25 12.1102 2.25984 12.0755 2.26078C11.8215 2.26828 11.568 2.28578 11.3152 2.31328C10.3936 2.41326 9.49103 2.64451 8.63489 3C8.74879 3.07875 8.55286 3.15094 8.55286 3.15094L8.85942 3.75H10.5L11.625 4.3125L12.6094 3.75L12.2813 2.25Z" fill="#666666"/>
<path d="M16.6046 5.62757L17.3597 4.97132C17.3834 4.9508 17.4015 4.9247 17.4124 4.89538C17.4234 4.86606 17.4268 4.83447 17.4225 4.80348C17.4181 4.77249 17.406 4.74308 17.3874 4.71795C17.3687 4.69282 17.3441 4.67276 17.3157 4.6596L16.4339 4.25038C16.3891 4.22949 16.3379 4.22712 16.2914 4.2438C16.2449 4.26048 16.2068 4.29485 16.1855 4.33945L15.8222 5.09929C15.8024 5.14083 15.7986 5.18819 15.8115 5.23236C15.8244 5.27652 15.8531 5.31442 15.8921 5.33882L16.3824 5.64538C16.4164 5.66657 16.4564 5.67628 16.4964 5.67308C16.5364 5.66987 16.5743 5.65392 16.6046 5.62757Z" fill="#666666"/>
<path d="M20.1393 6.59396L19.8661 6.17209C19.8618 6.16552 19.8581 6.15896 19.8543 6.15193C19.8051 6.05115 19.3978 5.22849 19.0575 4.90928C18.802 4.66787 18.7293 4.73724 18.7092 4.79068C18.6977 4.82024 18.6784 4.84614 18.6534 4.86568L17.3015 5.95834C17.2682 5.98527 17.2267 6 17.1839 6.00005H16.484C16.4594 6.00004 16.435 6.00487 16.4122 6.01428C16.3895 6.02369 16.3688 6.03749 16.3514 6.0549L15.7889 6.6174C15.7714 6.63481 15.7576 6.65549 15.7482 6.67825C15.7387 6.70101 15.7339 6.72541 15.7339 6.75005C15.7339 6.77469 15.7387 6.79909 15.7482 6.82185C15.7576 6.84462 15.7714 6.8653 15.7889 6.88271L16.3514 7.44521C16.3688 7.46261 16.3895 7.47642 16.4122 7.48583C16.435 7.49524 16.4594 7.50007 16.484 7.50005H20.0076C20.0329 7.50007 20.058 7.49497 20.0813 7.48506C20.1045 7.47514 20.1256 7.46061 20.1431 7.44235C20.1606 7.42408 20.1743 7.40246 20.1832 7.37879C20.1921 7.35511 20.1962 7.32987 20.1951 7.30458L20.1693 6.68818C20.1679 6.65465 20.1576 6.62212 20.1393 6.59396Z" fill="#666666"/>
<path d="M12 3.375C13.9954 3.37483 15.9292 4.06657 17.4718 5.33235C19.0144 6.59812 20.0704 8.35962 20.4599 10.3167C20.8493 12.2738 20.5481 14.3053 19.6076 16.0652C18.6671 17.8251 17.1454 19.2045 15.3019 19.9682C13.4584 20.732 11.4071 20.8329 9.49757 20.2538C7.58801 19.6747 5.93832 18.4513 4.8296 16.7923C3.72088 15.1332 3.22173 13.141 3.4172 11.1551C3.61266 9.16928 4.49065 7.31264 5.90156 5.90156C6.70049 5.09807 7.65087 4.46104 8.69767 4.02735C9.74448 3.59366 10.8669 3.37193 12 3.375ZM12 1.5C6.20156 1.5 1.5 6.20156 1.5 12C1.5 17.7984 6.20156 22.5 12 22.5C17.7984 22.5 22.5 17.7984 22.5 12C22.5 6.20156 17.7984 1.5 12 1.5Z" fill="#666666"/>
</svg>
