<svg width="36" height="36" viewBox="0 0 36 36" fill="none" xmlns="http://www.w3.org/2000/svg">
<g clip-path="url(#clip0)">
<g filter="url(#filter0_f)">
<path d="M0.88208 35.1596L3.28511 26.3916C1.80757 23.8259 1.02006 20.9115 1.02818 17.932C1.02818 8.59556 8.62712 1.00475 17.9636 1.00475C22.4937 1.00475 26.7479 2.7665 29.9386 5.96518C33.1372 9.16386 34.899 13.418 34.8909 17.9402C34.8909 27.2765 27.2918 34.8674 17.9555 34.8674H17.9473C15.114 34.8674 12.3292 34.153 9.85308 32.8052L0.88208 35.1596ZM10.2753 29.7364L10.7867 30.045C12.9463 31.3277 15.4224 32.0014 17.9473 32.0096H17.9555C25.7088 32.0096 32.0249 25.7014 32.0249 17.9402C32.0249 14.1812 30.5636 10.6497 27.9088 7.98664C25.2541 5.32376 21.7143 3.86247 17.9555 3.86247C10.194 3.86247 3.87778 10.1706 3.87778 17.9319C3.87778 20.5868 4.61655 23.1765 6.02924 25.4174L6.36206 25.9532L4.94139 31.141L10.2753 29.7364Z" fill="black" fill-opacity="0.24"/>
</g>
<path d="M1.65024 34.2544L3.94331 25.8917C2.52934 23.4389 1.78552 20.6572 1.78653 17.8259C1.78653 8.92608 9.03472 1.68602 17.9263 1.68602C22.248 1.68602 26.2971 3.36976 29.3438 6.41645C32.3905 9.46328 34.0663 13.5204 34.0663 17.8339C34.0663 26.7336 26.8182 33.9737 17.9264 33.9737H17.9185C15.2164 33.9737 12.5624 33.2922 10.2052 32.0094L1.65024 34.2545V34.2544Z" fill="url(#paint0_linear)"/>
<path d="M1.065 34.8397L3.4382 26.1805C1.97901 23.6469 1.20116 20.7685 1.20928 17.826C1.20928 8.60553 8.71395 1.10884 17.9346 1.10884C22.4084 1.10884 26.6096 2.84861 29.7608 6.00764C32.9197 9.16668 34.6596 13.368 34.6516 17.834C34.6516 27.0545 27.1469 34.5512 17.9263 34.5512H17.9185C15.1257 34.5501 12.3775 33.8499 9.92464 32.5146L1.065 34.8399V34.8397ZM10.3415 29.4838L10.8466 29.7885C12.9795 31.0554 15.4248 31.7209 17.9185 31.7289H17.9265C25.5834 31.7289 31.8213 25.4991 31.8213 17.834C31.8213 14.1218 30.3781 10.634 27.7563 8.00417C25.1344 5.37435 21.6387 3.93113 17.9265 3.93113C10.2614 3.93113 4.02359 10.161 4.02359 17.826C4.02359 20.4478 4.75311 23.0055 6.14829 25.2183L6.47705 25.7476L5.07389 30.8709L10.3415 29.4838Z" fill="white"/>
<path d="M13.7492 10.8264C13.4364 10.1288 13.1076 10.1127 12.8111 10.1047C12.5706 10.0967 12.29 10.0967 12.0093 10.0967C11.7287 10.0967 11.2796 10.201 10.8948 10.6178C10.5099 11.0348 9.43549 12.0451 9.43549 14.1058C9.43549 16.1582 10.9349 18.1466 11.1433 18.4272C11.3518 18.7079 14.0377 23.0615 18.2792 24.7373C21.807 26.1324 22.5287 25.8517 23.2903 25.7796C24.06 25.7074 25.7599 24.7693 26.1126 23.7912C26.4573 22.813 26.4573 21.9791 26.3531 21.8028C26.2489 21.6263 25.9683 21.5222 25.5513 21.3136C25.1344 21.1052 23.0819 20.0949 22.6971 19.9507C22.3121 19.8064 22.0316 19.7422 21.759 20.1591C21.4783 20.576 20.6766 21.5141 20.4359 21.7948C20.1954 22.0754 19.9469 22.1074 19.5299 21.899C19.113 21.6906 17.7661 21.2495 16.1706 19.8224C14.9278 18.7159 14.0859 17.3448 13.8453 16.9279C13.6048 16.5111 13.8213 16.2864 14.0298 16.0781C14.2141 15.8936 14.4466 15.5889 14.6552 15.3484C14.8636 15.1079 14.9358 14.9315 15.0721 14.6508C15.2084 14.3702 15.1442 14.1297 15.04 13.9213C14.9358 13.7127 14.118 11.6522 13.7492 10.8264Z" fill="white"/>
</g>
<defs>
<filter id="filter0_f" x="-5.11792" y="-4.99525" width="46.0088" height="46.1549" filterUnits="userSpaceOnUse" color-interpolation-filters="sRGB">
<feFlood flood-opacity="0" result="BackgroundImageFix"/>
<feBlend mode="normal" in="SourceGraphic" in2="BackgroundImageFix" result="shape"/>
<feGaussianBlur stdDeviation="3" result="effect1_foregroundBlur"/>
</filter>
<linearGradient id="paint0_linear" x1="17.8576" y1="34.2523" x2="17.8576" y2="1.68407" gradientUnits="userSpaceOnUse">
<stop stop-color="#20B038"/>
<stop offset="1" stop-color="#60D66A"/>
</linearGradient>
<clipPath id="clip0">
<rect width="35.8599" height="36" fill="white"/>
</clipPath>
</defs>
</svg>
