<svg width="960" height="306" viewBox="0 0 960 306" fill="none" xmlns="http://www.w3.org/2000/svg">
<rect opacity="0.2" y="185" width="686" height="121" rx="60.5" fill="#D2E7E8"/>
<rect opacity="0.2" x="316" width="644" height="101" rx="50.5" fill="#D2E7E8"/>
<rect x="455.423" y="110.856" width="214.577" height="32.1393" rx="16.0697" fill="#D2E7E8"/>
<rect x="506.468" y="155.284" width="94.5274" height="14.1791" rx="7.08955" fill="#E0F3F3"/>
<rect x="309.851" y="196.875" width="94.5274" height="14.1791" rx="7.08955" fill="#E0F3F3"/>
<rect x="290" y="220.507" width="214.577" height="50.0995" rx="25.0498" fill="#D2E7E8"/>
<path fill-rule="evenodd" clip-rule="evenodd" d="M403.425 59.9139C401.015 57.0851 399.383 53.6182 399.656 49.7335C400.441 38.5406 416.022 41.0029 419.053 46.6521C422.084 52.3013 421.724 66.631 417.807 67.6407C416.245 68.0434 412.917 67.057 409.53 65.0156L411.656 80.0554H399.103L403.425 59.9139Z" fill="#B28B67"/>
<path fill-rule="evenodd" clip-rule="evenodd" d="M411.898 40.1411C410.244 39.8698 405.789 39.6833 404.968 39.6834C404.443 39.6834 403.874 39.8034 403.563 39.3213C403.308 38.9266 403.402 38.259 403.326 37.8009C403.238 37.2688 403.112 36.7435 402.985 36.2196C402.625 34.7287 402.079 33.3103 401.316 31.9786C399.884 29.4802 397.786 27.5232 395.137 26.3844C392.212 25.127 388.902 24.8391 385.756 25.0941C382.389 25.367 379.341 26.4784 376.162 27.5244C373.133 28.5211 369.96 28.9134 366.792 28.4267C363.6 27.9363 361.188 26.2062 358.495 24.564C355.739 22.8829 352.589 21.7833 349.33 22.0361C346.288 22.2721 343.485 23.5281 340.969 25.2058C338.616 26.7756 336.674 28.6642 335.578 31.3223C334.399 34.1817 334.4 37.3202 336.339 39.8472C339.15 43.5101 344.369 44.4573 348.711 44.3631C351.222 44.3088 353.688 43.8504 356.059 43.0165C359.221 41.9043 361.954 40.0193 364.912 38.4898C366.3 37.7721 367.735 37.1827 369.239 36.7581C370.698 36.3459 372.136 36.1569 373.458 37.0386C374.855 37.9713 376.108 38.8876 377.707 39.4715C379.242 40.0317 380.867 40.345 382.501 40.3323C385.682 40.3078 388.817 39.3169 391.906 38.6531C394.424 38.112 397.119 37.5726 399.687 38.0928C400.759 38.3099 402.324 38.7581 402.711 39.8718C396.197 41.0523 393.639 49.1083 395.475 55.0221C396.466 58.214 402.424 61.9453 404.741 60.2673C406.208 59.2042 405.317 57.8086 404.741 56.8872C403.636 55.1229 403.259 52.8565 405.302 51.6281C407.064 50.5687 408.917 53.0846 408.952 53.0818C409.437 53.0436 413.622 50.6765 416.506 47.2222C419.351 47.3909 419.783 45.515 419.103 43.981C418.424 42.4469 414.184 40.5162 411.898 40.1411Z" fill="#191847"/>
<path fill-rule="evenodd" clip-rule="evenodd" d="M395.971 123.478L434.835 188.452L463.971 243.381H470.247L421.428 123.478L395.971 123.478Z" fill="#997659"/>
<path fill-rule="evenodd" clip-rule="evenodd" d="M460.134 240.845C459.549 242.407 459.256 243.576 459.256 244.351C459.256 245.294 459.413 246.671 459.728 248.48C460.822 248.48 470.655 248.48 489.227 248.48C489.994 245.946 489.551 244.578 487.9 244.376C486.248 244.174 484.876 243.991 483.783 243.828L470.072 237.716C469.809 237.598 469.499 237.717 469.382 237.981C469.38 237.985 469.378 237.99 469.376 237.994L468.495 240.132C466.966 240.845 465.723 241.202 464.767 241.202C463.991 241.202 462.918 240.889 461.55 240.261L461.55 240.261C461.024 240.02 460.403 240.251 460.163 240.776C460.152 240.799 460.143 240.822 460.134 240.845Z" fill="#FF9B21"/>
<path fill-rule="evenodd" clip-rule="evenodd" d="M455.879 234.585L467.982 230.924C462.679 215.072 456.18 197.628 448.485 178.591C440.789 159.555 432.525 141.184 423.691 123.478H389.508C399.33 145.875 409.742 166.224 420.744 184.528C431.747 202.832 443.458 219.517 455.879 234.585Z" fill="#DB2721"/>
<path fill-rule="evenodd" clip-rule="evenodd" d="M393.416 123.478C389.748 146.31 382.674 175.481 382.006 176.381C381.561 176.981 365.537 182.351 333.935 192.489L335.29 198.023C372.976 192.586 392.833 188.367 394.862 185.368C397.905 180.868 413.099 145.321 418.983 123.478H393.416Z" fill="#B28B67"/>
<path fill-rule="evenodd" clip-rule="evenodd" d="M345.044 187.706L347.432 196.619C375.618 199.091 392.889 197.304 399.243 191.26C405.598 185.215 412.84 162.621 420.97 123.478H388.375C383.224 155.531 380.345 172.23 379.736 173.576C379.128 174.921 367.563 179.631 345.044 187.706Z" fill="#FF4133"/>
<path fill-rule="evenodd" clip-rule="evenodd" d="M334.689 190.035C333.196 189.638 332.109 189.486 331.43 189.581C330.603 189.695 329.43 190.02 327.911 190.556C328.143 191.654 330.231 201.52 334.173 220.154C336.557 220.615 337.662 220.005 337.488 218.323C337.315 216.641 337.184 215.242 337.094 214.126L339.541 199.626C339.588 199.347 339.419 199.051 339.163 198.965C339.158 198.964 339.154 198.962 339.149 198.961L337.089 198.337C336.139 196.889 335.562 195.686 335.36 194.727C335.195 193.948 335.242 192.833 335.501 191.384L335.501 191.384C335.601 190.828 335.267 190.233 334.756 190.055C334.734 190.048 334.711 190.041 334.689 190.035Z" fill="#FF9B21"/>
<path fill-rule="evenodd" clip-rule="evenodd" d="M440.972 115.167L455.788 129.621C460.099 131.46 463.631 133.49 466.385 135.712C467.004 136.459 467.678 137.89 464.765 137.25C461.851 136.609 458.758 136.067 458.211 137.014C457.663 137.962 459.276 139.413 458.265 140.653C457.59 141.48 455.321 138.851 451.458 132.765L436.051 123.682L440.972 115.167ZM375.209 117.205L386.139 117.248C379.39 139.034 375.747 150.594 375.209 151.927C373.999 154.926 376.56 159.494 377.655 161.948C374.088 163.545 374.468 157.633 369.969 159.727C365.861 161.638 362.737 165.1 357.992 162.172C357.409 161.812 356.769 160.457 358.314 159.397C362.162 156.759 367.708 152.14 368.457 150.62C369.479 148.547 371.73 137.409 375.209 117.205Z" fill="#B28B67"/>
<path fill-rule="evenodd" clip-rule="evenodd" d="M406.27 71.3428L410.793 70.5671C418.579 90.0184 432.174 107.692 451.576 123.589L436.915 141.401C417.515 118.766 405.556 95.4137 406.27 71.3428Z" fill="#191847"/>
<path fill-rule="evenodd" clip-rule="evenodd" d="M386.555 128.178H426.827C417.497 105.492 412.832 86.2209 412.832 70.364L400.684 68.554C391.136 83.909 388.44 102.814 386.555 128.178Z" fill="#DDE3E9"/>
<path fill-rule="evenodd" clip-rule="evenodd" d="M400.426 68.5625C400.428 68.5597 400.43 68.5568 400.431 68.554H401.224C402.173 68.5866 403.618 68.6455 405.56 68.7306L408.495 77.1194C408.806 87.3474 410.619 107.959 413.935 138.956H387.536C387.605 141.097 387.719 143.257 387.878 145.438H368.249C371.185 112.312 381.908 86.6839 400.417 68.554L400.426 68.5625V68.5625Z" fill="#2F3676"/>
<path fill-rule="evenodd" clip-rule="evenodd" d="M389.28 111.564C390.031 124.908 391.912 134.108 394.923 139.162H387.543C387.219 129.561 387.799 120.361 389.28 111.564V111.564Z" fill="black" fill-opacity="0.1"/>
<path fill-rule="evenodd" clip-rule="evenodd" d="M393.412 122.948L406.429 116.897V122.948H393.412Z" fill="white" fill-opacity="0.2"/>
<path fill-rule="evenodd" clip-rule="evenodd" d="M601.91 111.418C604.847 108.948 607.356 105.705 608.435 101.728C611.543 90.2696 597.861 90.2159 593.465 95.4392C589.069 100.662 584.558 115.227 587.451 116.889C588.605 117.552 591.681 117.097 595.161 115.584L588.36 130.461L598.717 132.512L601.91 111.418Z" fill="#B28B67"/>
<path fill-rule="evenodd" clip-rule="evenodd" d="M598.744 101.598C596.204 108.279 594.014 111.42 592.176 111.022C589.418 110.425 587.698 107.932 586.488 107.67C585.606 107.479 585.412 108.775 585.707 109.83C585.951 110.701 588.07 111.948 587.699 113.136C587.329 114.324 585.76 113.003 585.54 113.708C585.177 114.873 584.167 116.994 585.95 117.379C587.754 117.77 593.158 118.143 594.992 115.297C596.175 113.46 597.811 109.477 599.901 103.348C600.015 103.357 600.129 103.373 600.242 103.398C601.787 103.732 602.597 105.425 602.05 107.179C601.772 108.07 601.199 108.805 600.499 109.269C600.823 110.446 601.211 111.687 601.694 112.985C605.481 111.534 609.74 105.809 608.55 99.1665C608.62 96.0536 607.196 94.0747 605.166 92.8594C603.608 91.5957 601.741 91.087 599.976 91.2605C596.74 90.8863 593.597 91.3661 592.601 91.8395C591.549 95.2139 591.813 96.3398 596.762 97.3168C597.745 98.3033 598.285 99.7524 598.744 101.598Z" fill="#191847"/>
<path fill-rule="evenodd" clip-rule="evenodd" d="M595.87 174.732L570.264 239.455L553.09 294.172H546.308L572.564 174.732L595.87 174.732Z" fill="#997659"/>
<path fill-rule="evenodd" clip-rule="evenodd" d="M601.026 174.732C601.299 197.476 605.275 228.097 605.911 229.515C606.334 230.46 620.956 242.48 649.775 265.573L645.104 270.565C611.1 250.765 593.311 239.545 591.737 236.904C589.377 232.943 581.693 196.491 575.523 174.732H601.026Z" fill="#B28B67"/>
<path fill-rule="evenodd" clip-rule="evenodd" d="M650.625 263.796C652.157 264.29 653.21 264.772 653.782 265.243C654.478 265.816 655.39 266.775 656.521 268.119C655.809 268.971 649.411 276.627 637.328 291.087C634.96 290.144 634.238 288.968 635.164 287.559C636.089 286.15 636.848 284.971 637.438 284.022L641.85 269.633C641.935 269.356 642.224 269.187 642.495 269.256C642.5 269.257 642.504 269.258 642.509 269.26L644.659 269.872C646.18 269.115 647.252 268.365 647.874 267.62C648.379 267.016 648.845 265.99 649.273 264.543L649.273 264.543C649.437 263.988 650.011 263.645 650.555 263.777C650.579 263.782 650.602 263.789 650.625 263.796Z" fill="#E4E4E4"/>
<path fill-rule="evenodd" clip-rule="evenodd" d="M555.866 291.697C556.45 293.259 556.742 294.428 556.742 295.204C556.742 296.147 556.585 297.523 556.272 299.333C555.18 299.333 545.372 299.333 526.846 299.333C526.082 296.798 526.523 295.43 528.17 295.228C529.818 295.026 531.187 294.843 532.276 294.681L545.953 288.568C546.216 288.451 546.524 288.569 546.642 288.833C546.644 288.837 546.646 288.842 546.648 288.847L547.527 290.984C549.052 291.698 550.291 292.054 551.245 292.054C552.019 292.054 553.089 291.741 554.454 291.113L554.454 291.113C554.978 290.873 555.597 291.103 555.838 291.628C555.848 291.651 555.857 291.674 555.866 291.697Z" fill="#E4E4E4"/>
<path fill-rule="evenodd" clip-rule="evenodd" d="M578.653 288.536L546.41 285.042L570.306 174.732H599.186L578.653 288.536Z" fill="#69A1AC"/>
<path fill-rule="evenodd" clip-rule="evenodd" d="M643.105 257.52L621.955 282.52C599.679 258.223 586.691 242.369 582.993 234.958C579.295 227.547 575.97 207.472 573.02 174.732H605.533C607.145 203.535 608.231 218.607 608.792 219.947C609.354 221.288 620.791 233.812 643.105 257.52Z" fill="#89C5CC"/>
<path fill-rule="evenodd" clip-rule="evenodd" d="M557.955 161.527L539.148 172.557C534.532 173.28 530.561 174.422 527.234 175.984C526.396 176.596 525.26 177.91 528.161 178.055C531.062 178.2 534.093 178.498 534.251 179.647C534.41 180.797 532.406 181.869 532.884 183.456C533.203 184.515 536.234 182.388 541.976 177.077L559.381 171.856L557.955 161.527ZM619.201 170.419L608.724 169.026C610.153 193.438 610.971 206.399 611.178 207.909C611.644 211.306 608.136 215.901 606.52 218.407C609.567 220.601 610.569 214.168 614.395 217.021C617.886 219.625 620.078 223.775 625.299 221.238C625.941 220.926 626.866 219.547 625.632 218.2C622.556 214.844 618.313 209.128 617.946 207.388C617.447 205.015 617.865 192.692 619.201 170.419Z" fill="#B28B67"/>
<path fill-rule="evenodd" clip-rule="evenodd" d="M596.114 121.209L592.138 119.839C573.541 132.67 561.054 160.511 538.925 173.129L542.107 180.079C575.808 180.019 591.439 146.114 596.114 121.209Z" fill="#E87613"/>
<path fill-rule="evenodd" clip-rule="evenodd" d="M602.864 183.052C586.313 180.797 574.137 179.139 566.339 178.076C564.67 177.849 565.567 175.214 566.103 173.895C572.281 158.679 586.81 143.348 591.642 121.148L602.577 120.747C607.902 137.508 606.742 157.093 602.864 183.052Z" fill="#DDE3E9"/>
<path fill-rule="evenodd" clip-rule="evenodd" d="M613.83 138.39C615.448 138.111 616.891 137.142 618.159 135.481C623.626 128.324 623.166 123.909 619.398 121.962C615.63 120.016 611.383 122.382 604.901 121.494C604.549 121.446 604.22 121.427 603.916 121.436L600.611 121.198C583.594 155.356 575.901 178.648 577.534 191.072L605.954 194.961C606.689 199.581 607.502 203.494 608.393 206.701L616.137 207.761C622.561 181.52 621.792 158.396 613.83 138.39Z" fill="#FF9B21"/>
<path fill-rule="evenodd" clip-rule="evenodd" d="M605.02 175.459C602.298 183.725 599.512 189.613 596.663 193.124L607.289 194.574C606.426 189.166 605.669 182.795 605.02 175.459Z" fill="black" fill-opacity="0.1"/>
<g clip-path="url(#clip0)">
<path fill-rule="evenodd" clip-rule="evenodd" d="M517.244 71.0421V98.0308C517.244 98.7466 517.529 99.433 518.035 99.9392C518.541 100.445 519.227 100.73 519.943 100.73H552.33C553.045 100.73 553.732 100.445 554.238 99.9392C554.744 99.433 555.028 98.7466 555.028 98.0308V71.0421H517.244ZM519.943 62.9456C518.512 62.9456 517.139 63.5142 516.126 64.5265C515.114 65.5388 514.545 66.9117 514.545 68.3433V98.0308C514.545 99.4624 515.114 100.835 516.126 101.848C517.139 102.86 518.512 103.429 519.943 103.429H552.33C553.761 103.429 555.134 102.86 556.146 101.848C557.159 100.835 557.727 99.4624 557.727 98.0308V68.3433C557.727 66.9117 557.159 65.5388 556.146 64.5265C555.134 63.5142 553.761 62.9456 552.33 62.9456H519.943Z" fill="#02BEB2"/>
<path fill-rule="evenodd" clip-rule="evenodd" d="M523.992 60.2467C524.349 60.2467 524.693 60.3889 524.946 60.6419C525.199 60.895 525.341 61.2382 525.341 61.5961V62.9456C525.341 63.3035 525.199 63.6467 524.946 63.8998C524.693 64.1528 524.349 64.295 523.992 64.295C523.634 64.295 523.29 64.1528 523.037 63.8998C522.784 63.6467 522.642 63.3035 522.642 62.9456V61.5961C522.642 61.2382 522.784 60.895 523.037 60.6419C523.29 60.3889 523.634 60.2467 523.992 60.2467V60.2467ZM548.281 60.2467C548.639 60.2467 548.982 60.3889 549.235 60.6419C549.489 60.895 549.631 61.2382 549.631 61.5961V62.9456C549.631 63.3035 549.489 63.6467 549.235 63.8998C548.982 64.1528 548.639 64.295 548.281 64.295C547.923 64.295 547.58 64.1528 547.327 63.8998C547.074 63.6467 546.932 63.3035 546.932 62.9456V61.5961C546.932 61.2382 547.074 60.895 547.327 60.6419C547.58 60.3889 547.923 60.2467 548.281 60.2467V60.2467Z" fill="#02BEB2"/>
<path d="M544.233 77.7894C544.233 77.4315 544.375 77.0882 544.628 76.8352C544.881 76.5821 545.225 76.4399 545.582 76.4399H548.281C548.639 76.4399 548.982 76.5821 549.235 76.8352C549.489 77.0882 549.631 77.4315 549.631 77.7894V80.4882C549.631 80.8461 549.489 81.1894 549.235 81.4424C548.982 81.6955 548.639 81.8377 548.281 81.8377H545.582C545.225 81.8377 544.881 81.6955 544.628 81.4424C544.375 81.1894 544.233 80.8461 544.233 80.4882V77.7894ZM536.136 77.7894C536.136 77.4315 536.279 77.0882 536.532 76.8352C536.785 76.5821 537.128 76.4399 537.486 76.4399H540.185C540.543 76.4399 540.886 76.5821 541.139 76.8352C541.392 77.0882 541.534 77.4315 541.534 77.7894V80.4882C541.534 80.8461 541.392 81.1894 541.139 81.4424C540.886 81.6955 540.543 81.8377 540.185 81.8377H537.486C537.128 81.8377 536.785 81.6955 536.532 81.4424C536.279 81.1894 536.136 80.8461 536.136 80.4882V77.7894ZM522.642 85.886C522.642 85.5281 522.784 85.1848 523.037 84.9318C523.29 84.6787 523.634 84.5365 523.992 84.5365H526.69C527.048 84.5365 527.392 84.6787 527.645 84.9318C527.898 85.1848 528.04 85.5281 528.04 85.886V88.5848C528.04 88.9427 527.898 89.286 527.645 89.539C527.392 89.7921 527.048 89.9343 526.69 89.9343H523.992C523.634 89.9343 523.29 89.7921 523.037 89.539C522.784 89.286 522.642 88.9427 522.642 88.5848V85.886ZM530.739 85.886C530.739 85.5281 530.881 85.1848 531.134 84.9318C531.387 84.6787 531.73 84.5365 532.088 84.5365H534.787C535.145 84.5365 535.488 84.6787 535.741 84.9318C535.994 85.1848 536.136 85.5281 536.136 85.886V88.5848C536.136 88.9427 535.994 89.286 535.741 89.539C535.488 89.7921 535.145 89.9343 534.787 89.9343H532.088C531.73 89.9343 531.387 89.7921 531.134 89.539C530.881 89.286 530.739 88.9427 530.739 88.5848V85.886Z" fill="#02BEB2"/>
</g>
<path d="M500.796 90.7687H487.562C484.816 90.7687 482.599 92.9853 482.599 95.7314V122.199C482.599 124.945 484.816 127.162 487.562 127.162H500.796C503.542 127.162 505.759 124.945 505.759 122.199V95.7314C505.759 92.9853 503.542 90.7687 500.796 90.7687ZM497.487 123.853H490.871V122.199H497.487V123.853ZM502.864 118.891H485.494V95.7314H502.864V118.891Z" fill="#02BEB2"/>
<defs>
<clipPath id="clip0">
<rect width="43.1818" height="43.1818" fill="white" transform="translate(514.545 60.2467)"/>
</clipPath>
</defs>
</svg>
