<svg width="120" height="28" viewBox="0 0 120 28" fill="none" xmlns="http://www.w3.org/2000/svg">
<path d="M40.0645 9.22496C40.1479 8.91916 40.2869 8.66896 40.4815 8.47436C40.6761 8.25196 40.8429 8.00176 40.9819 7.72376C41.0097 7.69596 41.0931 7.58476 41.2321 7.39016C41.3711 7.19556 41.524 6.98706 41.6908 6.76466C41.8576 6.51446 42.0105 6.30596 42.1495 6.13916C42.3163 5.94456 42.4275 5.84726 42.4831 5.84726C42.4831 5.73605 42.5248 5.61095 42.6082 5.47195C42.7194 5.33295 42.8306 5.20785 42.9418 5.09665C43.0808 4.95765 43.2059 4.84645 43.3171 4.76305C43.4561 4.67965 43.5534 4.63795 43.609 4.63795H43.8592L43.9426 4.80475H44.3179C44.4569 4.83255 44.582 4.90205 44.6932 5.01325C44.8322 5.09665 44.9712 5.15225 45.1102 5.18005H45.4438C46.2778 5.37465 47.0979 5.65265 47.9041 6.01406C48.7381 6.34766 49.4331 6.88976 49.9891 7.64036C50.1281 8.08516 50.2671 8.51606 50.4061 8.93306C50.5451 9.32226 50.698 9.73926 50.8648 10.1841C50.8648 10.4065 50.8509 10.6984 50.8231 11.0598C50.8231 11.3934 50.7953 12.0884 50.7397 13.1448V13.395C50.7397 13.5618 50.6841 13.7981 50.5729 14.1039C50.4895 14.4097 50.3783 14.7155 50.2393 15.0213C50.1281 15.3271 50.003 15.5912 49.864 15.8136C49.725 16.036 49.6138 16.1472 49.5304 16.1472L49.4887 16.1889C49.3497 16.4113 49.0995 16.6893 48.7381 17.0229C48.4045 17.3565 47.9875 17.6901 47.4871 18.0237C46.9867 18.3573 46.4307 18.6492 45.8191 18.8994C45.2075 19.1218 44.5681 19.233 43.9009 19.233C43.4561 19.233 43.0252 19.1913 42.6082 19.1079C42.1912 18.9967 41.802 18.8716 41.4406 18.7326L41.0653 18.3156L40.1479 18.1488C39.9811 18.0376 39.8282 17.8847 39.6892 17.6901C39.578 17.4677 39.4668 17.2731 39.3556 17.1063C38.9664 16.6893 38.7162 16.2584 38.605 15.8136C38.5216 15.341 38.4799 14.785 38.4799 14.1456C38.4799 14.0066 38.4938 13.9093 38.5216 13.8537C38.5494 13.7703 38.5633 13.6591 38.5633 13.5201V13.395C38.5633 13.3672 38.5772 13.2838 38.605 13.1448C38.6606 13.0058 38.7023 12.8668 38.7301 12.7278C38.7857 12.561 38.8274 12.422 38.8552 12.3108C38.9108 12.1718 38.9386 12.0745 38.9386 12.0189L39.1888 11.6853C39.1888 11.6019 39.2305 11.5185 39.3139 11.4351C39.3973 11.3239 39.439 11.2405 39.439 11.1849L39.5224 11.31C39.5502 11.2544 39.578 11.1571 39.6058 11.0181C39.6336 10.8791 39.6614 10.7957 39.6892 10.7679L39.8143 10.476C39.8143 10.4204 39.8282 10.3231 39.856 10.1841C39.9116 10.0451 39.9533 9.94776 39.9811 9.89216H39.7726C39.7448 9.89216 39.717 9.90607 39.6892 9.93387L40.0645 9.22496ZM42.2746 13.8537C42.2746 13.9649 42.2607 14.1178 42.2329 14.3124C42.2329 14.507 42.2329 14.7016 42.2329 14.8962C42.2329 15.1742 42.2607 15.4244 42.3163 15.6468L42.5665 16.9812L42.9835 16.8978C43.0669 17.009 43.192 17.0646 43.3588 17.0646C43.7202 17.0646 44.0955 17.009 44.4847 16.8978C44.8739 16.7588 45.2214 16.5503 45.5272 16.2723L46.2778 15.2715L46.6948 14.3124L46.8199 13.3116C46.9311 13.0614 47.0006 12.8112 47.0284 12.561C47.0562 12.3108 47.0701 12.0606 47.0701 11.8104V10.9764C47.0701 10.615 47.0562 10.1563 47.0284 9.60027C47.0284 9.01646 46.9033 8.57166 46.6531 8.26586C46.4585 8.04346 46.1944 7.77936 45.8608 7.47356C45.555 7.16776 45.2909 7.01486 45.0685 7.01486C44.9573 7.01486 44.8183 7.09826 44.6515 7.26506C44.5125 7.43186 44.4152 7.51526 44.3596 7.51526C44.1094 7.70986 43.9565 7.96006 43.9009 8.26586C43.8731 8.57166 43.7897 8.86356 43.6507 9.14156L43.5673 9.76706C43.2059 10.4899 42.9001 11.171 42.6499 11.8104C42.3997 12.4498 42.2746 13.1309 42.2746 13.8537ZM40.4398 10.476L40.0645 11.31C40.0645 11.4212 40.0506 11.5185 40.0228 11.6019C39.995 11.6853 39.9811 11.7826 39.9811 11.8938L40.1062 11.9355L40.4815 11.0181C40.4815 10.9625 40.4815 10.8652 40.4815 10.7262C40.5093 10.5872 40.5371 10.5038 40.5649 10.476H40.4398ZM38.9386 12.7278C38.883 12.7834 38.8552 12.8807 38.8552 13.0197L38.8135 13.2699L38.9803 13.1031C38.9803 13.0475 38.9942 12.978 39.022 12.8946C39.0776 12.8112 39.1054 12.7556 39.1054 12.7278L39.1888 12.5193L38.9386 12.7278ZM39.3556 11.727C39.2444 11.8382 39.1888 11.9494 39.1888 12.0606V12.1857L39.5224 11.7687L39.3556 11.727ZM40.4398 9.47516C40.4398 9.39176 40.412 9.35006 40.3564 9.35006C40.3008 9.35006 40.273 9.39176 40.273 9.47516C40.273 9.53076 40.3008 9.55856 40.3564 9.55856C40.3564 9.55856 40.3842 9.53076 40.4398 9.47516ZM39.6892 12.6444L39.8143 12.561L39.856 12.2274L39.6892 12.6444Z" fill="#50627E"/>
<path d="M53.2381 14.7711L53.6968 13.6452C53.6968 13.5896 53.6829 13.5479 53.6551 13.5201C53.6551 13.4923 53.6551 13.4506 53.6551 13.395C53.6551 13.1448 53.7107 12.8668 53.8219 12.561C53.9331 12.2274 54.0721 11.8799 54.2389 11.5185C54.4057 11.1571 54.5864 10.8096 54.781 10.476C55.0034 10.1146 55.2119 9.76706 55.4065 9.43346C55.3787 9.40566 55.3648 9.37786 55.3648 9.35006C55.3648 9.23886 55.4065 9.14156 55.4899 9.05816C55.6011 8.94696 55.6984 8.89136 55.7818 8.89136C56.032 8.89136 56.31 8.94696 56.6158 9.05816C56.9216 9.16936 57.1996 9.32226 57.4498 9.51686C57.7278 9.68366 57.9641 9.89216 58.1587 10.1424C58.3533 10.3648 58.4506 10.615 58.4506 10.893L58.3672 11.2266L61.6198 9.80876H62.3704C62.3704 9.75316 62.3982 9.72536 62.4538 9.72536C62.5372 9.69757 62.5928 9.68367 62.6206 9.68367C62.7874 9.68367 62.8986 9.71146 62.9542 9.76706C63.0376 9.82266 63.1488 9.91996 63.2878 10.059L63.7882 10.1424C63.8994 10.198 64.0662 10.2814 64.2886 10.3926C64.5388 10.5038 64.6639 10.6011 64.6639 10.6845V11.3934H64.4971L64.4554 11.5185C64.4554 11.5463 64.4693 11.5602 64.4971 11.5602H64.5805C64.6083 11.588 64.6361 11.6019 64.6639 11.6019V11.727L64.5805 11.8521C64.5805 12.0745 64.6083 12.1996 64.6639 12.2274C64.6639 12.5054 64.6222 12.8529 64.5388 13.2699C64.4554 13.6869 64.3025 13.9649 64.0801 14.1039H64.372C64.3164 14.1595 64.2886 14.229 64.2886 14.3124C64.2886 14.3958 64.3025 14.4514 64.3303 14.4792C64.3581 14.4792 64.372 14.4931 64.372 14.5209C64.372 14.7433 64.3303 14.9657 64.2469 15.1881C64.1913 15.4105 64.1635 15.5773 64.1635 15.6885L63.9967 16.314C63.9411 16.5364 63.8716 16.7171 63.7882 16.8561C63.7326 16.9951 63.7048 17.2175 63.7048 17.5233L63.7882 17.7318C63.7882 17.8152 63.7465 17.9264 63.6631 18.0654C63.5797 18.2044 63.538 18.3434 63.538 18.4824C63.538 18.7604 63.5658 18.9272 63.6214 18.9828V19.0662L63.4129 19.1496L63.2878 19.3998C63.121 19.4554 63.0098 19.511 62.9542 19.5666C62.9264 19.5944 62.8986 19.6222 62.8708 19.65C62.843 19.65 62.7874 19.6639 62.704 19.6917C62.6206 19.6917 62.4399 19.6917 62.1619 19.6917C61.8839 19.6917 61.6615 19.5805 61.4947 19.3581C61.3557 19.1357 61.2445 18.8855 61.1611 18.6075C61.0777 18.3017 61.0221 17.9959 60.9943 17.6901C60.9943 17.3565 60.9943 17.1063 60.9943 16.9395C60.9943 16.5225 60.9943 16.175 60.9943 15.897C60.9943 15.5912 60.9943 15.3132 60.9943 15.063C61.0221 14.785 61.0499 14.507 61.0777 14.229C61.1055 13.9232 61.1472 13.5618 61.2028 13.1448C61.2028 13.0336 61.175 12.8529 61.1194 12.6027C61.0916 12.3247 61.0777 12.1579 61.0777 12.1023L60.619 12.2691C59.9796 12.5471 59.3402 12.8946 58.7008 13.3116C58.0614 13.7286 57.6861 14.229 57.5749 14.8128L57.4915 15.1881L57.6166 15.2715C57.561 15.4105 57.5193 15.5217 57.4915 15.6051C57.4915 15.6607 57.4915 15.8136 57.4915 16.0638L57.8251 15.8136V15.8553C57.8251 16.2445 57.7 16.5364 57.4498 16.731C57.2274 16.8978 57.1162 17.1063 57.1162 17.3565L57.4081 18.4824L57.3247 19.6083H56.9077C56.8521 19.6361 56.7687 19.6778 56.6575 19.7334C56.5741 19.8168 56.4907 19.8585 56.4073 19.8585L54.4057 19.65L53.0296 18.9828L53.4049 18.4824C53.3493 18.538 53.3076 18.5658 53.2798 18.5658H53.2381C53.1547 18.5658 53.0991 18.5519 53.0713 18.5241C53.0713 18.3851 53.0991 18.2878 53.1547 18.2322L53.2381 18.399L53.947 17.6067C53.947 17.4955 53.9053 17.4121 53.8219 17.3565C53.7385 17.4399 53.6829 17.4955 53.6551 17.5233C53.6273 17.5233 53.4744 17.5233 53.1964 17.5233C53.1964 17.2453 53.2381 17.0229 53.3215 16.8561C53.4327 16.6615 53.4883 16.4947 53.4883 16.3557H53.4049C53.3493 16.3557 53.2798 16.3001 53.1964 16.1889C53.1408 16.1889 53.0852 16.2028 53.0296 16.2306C53.0018 16.2584 52.974 16.2723 52.9462 16.2723C52.974 16.1889 53.0435 16.0499 53.1547 15.8553C53.2937 15.6329 53.3632 15.48 53.3632 15.3966L53.2381 14.7711ZM53.8219 17.1063C53.9609 17.1063 54.0165 17.0507 53.9887 16.9395C53.9887 16.8005 54.0443 16.5642 54.1555 16.2306C54.0721 16.2306 53.9887 16.3279 53.9053 16.5225C53.8219 16.6893 53.7802 16.8422 53.7802 16.9812C53.7802 17.0368 53.7941 17.0785 53.8219 17.1063ZM53.3632 15.897H53.2381V15.9387C53.2381 15.9665 53.2937 16.0221 53.4049 16.1055L53.3632 15.897ZM53.4883 16.9395V16.6893C53.4605 16.6893 53.4466 16.7032 53.4466 16.731C53.4466 16.7588 53.4327 16.7866 53.4049 16.8144C53.4049 16.8144 53.4049 16.8283 53.4049 16.8561L53.4883 16.9395ZM53.6968 15.6885V15.4383L53.6134 15.6051L53.6968 15.6885Z" fill="#50627E"/>
<path d="M71.1617 15.0213C71.3285 15.0213 71.4536 14.9796 71.537 14.8962C71.6482 14.8128 71.7316 14.7294 71.7872 14.646C71.8428 14.5626 71.8984 14.4792 71.954 14.3958C72.0374 14.3124 72.1347 14.2707 72.2459 14.2707C72.6073 14.2707 72.9409 14.1317 73.2467 13.8537C73.5803 13.5479 73.7471 12.8529 73.7471 11.7687V10.9764C73.7471 10.8374 73.6915 10.7123 73.5803 10.6011C73.4691 10.4899 73.3857 10.4343 73.3301 10.4343C73.3023 10.4621 73.205 10.5177 73.0382 10.6011C72.8714 10.6845 72.6907 10.7957 72.4961 10.9347C72.3015 11.0459 72.1069 11.171 71.9123 11.31C71.7177 11.449 71.5648 11.588 71.4536 11.727V12.144C71.398 12.5888 71.2868 13.0753 71.12 13.6035C70.9532 14.1317 70.8698 14.6321 70.8698 15.1047H71.12L71.1617 15.0213ZM77.1248 13.812L76.5827 14.4375L76.3325 14.6043C76.0267 14.7433 75.7348 14.8962 75.4568 15.063C75.1788 15.202 74.9008 15.3132 74.6228 15.3966L74.456 15.5634H74.2475C74.0807 15.5634 73.9695 15.619 73.9139 15.7302C73.8861 15.8414 73.7888 15.9109 73.622 15.9387C73.3162 15.9943 73.1216 16.0499 73.0382 16.1055C72.9548 16.1611 72.9131 16.2028 72.9131 16.2306C72.9409 16.2862 72.9548 16.314 72.9548 16.314C72.9548 16.3418 72.8992 16.3696 72.788 16.3974C72.7046 16.4252 72.6073 16.453 72.4961 16.4808C72.3849 16.4808 72.2876 16.4947 72.2042 16.5225C72.1208 16.5225 72.093 16.5225 72.1208 16.5225H71.9123C71.8289 16.6059 71.6065 16.6615 71.2451 16.6893C70.8837 16.7171 70.5918 16.8005 70.3694 16.9395L70.6196 17.9403C70.7586 17.9959 70.9393 18.0515 71.1617 18.1071C71.4119 18.1627 71.6621 18.2044 71.9123 18.2322C72.1625 18.26 72.3988 18.2878 72.6212 18.3156C72.8436 18.3156 73.0104 18.3156 73.1216 18.3156C73.5108 18.3156 73.8861 18.3017 74.2475 18.2739C74.6367 18.2183 75.0398 18.1905 75.4568 18.1905C75.846 18.1905 76.2213 18.2322 76.5827 18.3156C76.9441 18.3712 77.2916 18.5102 77.6252 18.7326V19.0245C77.6252 19.1635 77.6113 19.3303 77.5835 19.5249C77.5835 19.6917 77.5418 19.8029 77.4584 19.8585L77.2916 19.9419C77.2638 19.9697 77.1526 19.9975 76.958 20.0253C76.7634 20.0809 76.541 20.1365 76.2908 20.1921C76.0406 20.2477 75.7765 20.2894 75.4985 20.3172C75.2483 20.3728 75.0537 20.4006 74.9147 20.4006C74.3587 20.4006 73.8027 20.4006 73.2467 20.4006C72.7185 20.4284 72.1764 20.4423 71.6204 20.4423C71.2034 20.4423 70.7447 20.3728 70.2443 20.2338C69.7717 20.0948 69.313 19.9002 68.8682 19.65C68.4512 19.3998 68.0759 19.094 67.7423 18.7326C67.4364 18.3712 67.2418 17.9681 67.1584 17.5233L67.2836 17.2314C67.2836 17.1758 67.2975 17.0646 67.3253 16.8978C67.3531 16.731 67.3808 16.5364 67.4086 16.314V15.9387H67.7006L67.7423 15.897C67.7423 15.7302 67.7562 15.6329 67.784 15.6051C67.784 15.5773 67.7562 15.5495 67.7006 15.5217C67.6728 15.4661 67.6589 15.4105 67.6589 15.3549C67.6589 15.3271 67.7006 15.2854 67.784 15.2298L67.8257 14.6877C67.8257 14.5765 67.8257 14.4514 67.8257 14.3124C67.8535 14.1734 67.923 13.9927 68.0342 13.7703L68.1593 13.6869C68.1593 13.5757 68.1037 13.4645 67.9925 13.3533C68.0759 13.3255 68.1315 13.2421 68.1593 13.1031C68.1871 12.9641 68.2288 12.8946 68.2844 12.8946C68.3122 12.8946 68.3261 12.9085 68.3261 12.9363C68.3261 12.9363 68.34 12.9363 68.3678 12.9363L68.5346 13.0614C68.5624 13.0336 68.5763 13.0197 68.5763 13.0197H68.7014C68.7848 13.0197 68.8265 12.9919 68.8265 12.9363C68.8265 12.7973 68.757 12.6861 68.618 12.6027C68.5068 12.4915 68.4512 12.3664 68.4512 12.2274C68.4512 12.1718 68.4651 12.1301 68.4929 12.1023C68.4929 12.0467 68.479 12.005 68.4512 11.9772C68.4234 11.9494 68.4095 11.9216 68.4095 11.8938L68.5346 11.8521C68.7014 11.4351 68.8821 11.1154 69.0767 10.893C69.2991 10.6706 69.5354 10.4482 69.7856 10.2258L69.9941 10.1007C70.3833 9.85046 70.7586 9.57246 71.12 9.26666C71.5092 8.96086 71.9401 8.80796 72.4127 8.80796C72.8853 8.80796 73.3857 8.86356 73.9139 8.97476C74.4699 9.05816 74.9981 9.09986 75.4985 9.09986C76.1657 9.43346 76.541 9.64196 76.6244 9.72536C76.7356 9.78096 76.819 9.80876 76.8746 9.80876L76.8329 10.2258L77.1665 10.476L77.2916 10.7262L76.9997 11.1015L77.2499 11.4351L76.9997 11.8104C76.9441 11.866 76.9163 11.9355 76.9163 12.0189C76.9163 12.1023 76.9163 12.1718 76.9163 12.2274L76.958 12.2691L76.9997 12.4776L76.9163 12.9363L77.2082 13.0614V13.3116L77.0414 13.4367L77.1248 13.5618V13.812ZM77.2082 12.1023H77.2916C77.3472 12.1023 77.375 12.144 77.375 12.2274C77.375 12.3386 77.3194 12.3942 77.2082 12.3942C77.1526 12.3942 77.1248 12.3386 77.1248 12.2274C77.1248 12.144 77.1526 12.1023 77.2082 12.1023ZM77.375 12.6861C77.375 12.7973 77.3472 12.8529 77.2916 12.8529C77.236 12.8529 77.2082 12.7973 77.2082 12.6861C77.2082 12.6305 77.2221 12.6027 77.2499 12.6027C77.2777 12.6027 77.3194 12.6305 77.375 12.6861Z" fill="#50627E"/>
<path d="M80.15 17.6484C80.15 17.6206 80.15 17.5233 80.15 17.3565C80.1778 17.1897 80.1917 17.0229 80.1917 16.8561C80.2195 16.6615 80.2334 16.4947 80.2334 16.3557C80.2612 16.1889 80.2751 16.0777 80.2751 16.0221L80.4836 15.5634C80.4836 15.5078 80.5253 15.4244 80.6087 15.3132C80.6921 15.1742 80.7338 15.0769 80.7338 15.0213L80.9006 15.1464V14.4375L81.0674 14.1039C81.0674 14.0761 81.0535 14.0483 81.0257 14.0205C81.0257 13.9927 81.0257 13.951 81.0257 13.8954C81.0257 13.812 81.0257 13.7286 81.0257 13.6452C81.0535 13.534 81.0674 13.4506 81.0674 13.395C80.9284 13.395 80.845 13.4089 80.8172 13.4367L80.7338 13.4784L80.567 13.395C80.567 13.3116 80.5809 13.2421 80.6087 13.1865L80.6921 12.8946C80.7477 12.5054 80.7894 12.1301 80.8172 11.7687C80.8728 11.4073 80.9006 11.032 80.9006 10.6428L81.4844 6.55616C81.4844 6.50056 81.4844 6.36156 81.4844 6.13916C81.5122 5.91676 81.5539 5.68046 81.6095 5.43025L81.7763 4.42945L81.9431 3.92905C81.9431 3.84565 82.0126 3.67885 82.1516 3.42865C82.2906 3.15065 82.3601 2.96995 82.3601 2.88655V2.71975V2.59465C82.3601 2.20545 82.5269 1.98305 82.8605 1.92745C83.2219 1.87184 83.6111 1.78845 84.0281 1.67725L84.2366 1.80235C84.3478 1.94135 84.4451 1.99695 84.5285 1.96915C84.6119 1.91355 84.7787 1.99695 85.0289 2.21935L85.4876 2.59465L85.6961 2.88655V3.09505C85.6961 3.15065 85.6961 3.20625 85.6961 3.26185C85.7239 3.31745 85.7378 3.37305 85.7378 3.42865L85.7795 3.72055C85.7795 4.10975 85.6822 4.45725 85.4876 4.76305C85.293 5.04105 85.1957 5.37465 85.1957 5.76385V5.93066L85.0289 6.26426C85.0011 6.40326 84.9872 6.55616 84.9872 6.72296C84.9872 6.88976 84.9872 7.02876 84.9872 7.13996L85.0289 7.30676C85.0289 7.36236 85.0011 7.57086 84.9455 7.93226C84.9177 8.26586 84.9038 8.46046 84.9038 8.51606L84.9872 8.68286C84.9872 8.76626 84.9594 8.80796 84.9038 8.80796L84.9872 8.89136V10.3092C84.9316 10.3092 84.9038 10.337 84.9038 10.3926V10.6428L85.0289 10.5594C85.0011 10.615 84.9733 10.7401 84.9455 10.9347C84.9455 11.1015 84.9038 11.3378 84.8204 11.6436C84.9316 11.5046 85.0984 11.3656 85.3208 11.2266C85.571 11.0876 85.8351 10.9625 86.1131 10.8513C86.4189 10.7401 86.7386 10.6428 87.0722 10.5594C87.4058 10.476 87.7116 10.3926 87.9896 10.3092C88.0174 10.2814 88.1147 10.2536 88.2815 10.2258C88.4483 10.198 88.5734 10.1563 88.6568 10.1007L89.1572 10.1841H89.324C89.4352 10.1841 89.5325 10.1563 89.6159 10.1007L90.3665 10.2258L91.4924 11.3934L91.5758 11.7687L91.7426 12.561L91.7009 12.7278H91.7843C91.7565 12.7834 91.7426 12.8112 91.7426 12.8112C91.7426 12.839 91.7426 12.8668 91.7426 12.8946C91.7704 12.8946 91.7843 12.9224 91.7843 12.978V13.1031C91.7843 13.1587 91.7704 13.2282 91.7426 13.3116C91.7148 13.3672 91.7009 13.4228 91.7009 13.4784L91.7426 13.6452C91.7426 13.7842 91.7148 13.9371 91.6592 14.1039C91.6314 14.2707 91.6036 14.4097 91.5758 14.5209L91.409 14.7294C91.409 14.8128 91.4368 14.8545 91.4924 14.8545C91.4924 15.0491 91.4646 15.2298 91.409 15.3966C91.3812 15.5356 91.3673 15.619 91.3673 15.6468V15.7302V15.7719V15.7302C91.3673 15.7024 91.3812 15.6885 91.409 15.6885V15.7302L91.2839 16.1472L91.2005 16.2306L91.2839 16.6059C91.2839 16.7171 91.2561 16.9395 91.2005 17.2731C91.1449 17.5789 91.1171 17.7596 91.1171 17.8152L90.8669 18.9411C90.8113 19.1079 90.6306 19.2469 90.3248 19.3581C90.019 19.4693 89.8105 19.5666 89.6993 19.65L88.9487 19.7751C88.8097 19.7751 88.5873 19.7751 88.2815 19.7751C88.0035 19.8029 87.6699 19.8168 87.2807 19.8168C86.7247 19.8168 86.1826 19.7751 85.6544 19.6917C85.154 19.6361 84.9038 19.4554 84.9038 19.1496C84.5146 19.1496 84.2366 18.955 84.0698 18.5658C84.0698 18.5936 84.0559 18.6353 84.0281 18.6909C84.0281 18.7187 84.0281 18.7882 84.0281 18.8994C84.0281 19.0662 84.042 19.2052 84.0698 19.3164C83.9864 19.4276 83.8891 19.5666 83.7779 19.7334C83.6945 19.9002 83.6111 20.0114 83.5277 20.067C83.4721 20.0392 83.4165 19.9836 83.3609 19.9002C83.3331 19.8446 83.2914 19.8168 83.2358 19.8168C83.1802 19.8168 83.1107 19.8585 83.0273 19.9419C82.6103 19.6917 82.2211 19.5666 81.8597 19.5666C81.5261 19.5666 81.2203 19.5527 80.9423 19.5249C80.6921 19.4693 80.4836 19.3442 80.3168 19.1496C80.1778 18.955 80.1083 18.5658 80.1083 17.982C80.1083 17.9264 80.1083 17.8708 80.1083 17.8152C80.1361 17.7596 80.15 17.704 80.15 17.6484ZM84.0698 17.9403C84.737 17.8847 85.3625 17.7735 85.9463 17.6067C86.5579 17.4399 87.1 17.287 87.5726 17.148L87.8228 17.0646C87.8784 17.0368 87.9201 17.0229 87.9479 17.0229C87.9757 17.0229 88.0035 17.009 88.0313 16.9812L88.1981 16.314L88.6151 12.6861V12.1023C88.4205 12.1857 88.1564 12.283 87.8228 12.3942C87.517 12.4776 87.1973 12.5888 86.8637 12.7278C86.5301 12.839 86.2243 12.978 85.9463 13.1448C85.6683 13.3116 85.4876 13.4923 85.4042 13.6869C85.3764 13.7425 85.3625 13.7981 85.3625 13.8537C85.3625 13.9093 85.3486 13.951 85.3208 13.9788L84.3617 15.2298L84.2366 15.8136V15.9387C84.2366 15.9665 84.2227 16.0499 84.1949 16.1889C84.1671 16.3279 84.1532 16.4252 84.1532 16.4808C84.1532 16.5086 84.181 16.5225 84.2366 16.5225C84.2366 16.5781 84.2227 16.6615 84.1949 16.7727C84.1671 16.8561 84.1532 16.9256 84.1532 16.9812L83.9864 17.8569L84.0698 17.9403ZM81.7763 14.0205L81.6512 14.2707C81.6512 14.3819 81.6095 14.5487 81.5261 14.7711C81.4705 14.9935 81.4427 15.1325 81.4427 15.1881C81.4427 15.2437 81.4427 15.2854 81.4427 15.3132C81.4705 15.3132 81.4844 15.341 81.4844 15.3966V15.6468H81.6512L81.7763 15.3549C81.7763 15.2715 81.8041 15.1603 81.8597 15.0213C81.9153 14.8545 81.9431 14.7155 81.9431 14.6043C81.9431 14.5487 81.9292 14.4931 81.9014 14.4375C81.9014 14.3541 81.9014 14.2846 81.9014 14.229V13.9788L81.7763 14.0205ZM80.7755 15.5634C80.6921 15.619 80.6365 15.7024 80.6087 15.8136C80.5809 15.9248 80.567 15.9943 80.567 16.0221V16.2306L80.7755 16.0221L80.9006 15.5634H80.7755ZM80.4836 16.8561C80.4558 16.8839 80.4419 16.9117 80.4419 16.9395L80.4002 17.4399L80.5253 17.2731V17.1063C80.5253 17.0507 80.5253 17.009 80.5253 16.9812C80.5531 16.9256 80.567 16.87 80.567 16.8144V16.5225L80.4836 16.8561ZM81.5678 12.8112C81.5122 12.7556 81.4705 12.7278 81.4427 12.7278C81.3593 12.7278 81.3176 12.7834 81.3176 12.8946C81.3176 12.978 81.3593 13.0197 81.4427 13.0197C81.4983 13.0197 81.54 12.9502 81.5678 12.8112ZM81.3176 16.5225L81.4844 16.3557V16.0638L81.3176 16.5225Z" fill="#50627E"/>
<path d="M93.9879 15.2298C93.9879 15.1742 94.0018 15.1325 94.0296 15.1047C94.0574 15.0491 94.0852 14.9935 94.113 14.9379L94.2381 14.8128C94.2381 14.4236 94.3632 13.9371 94.6134 13.3533C94.8914 12.7695 95.1972 12.3664 95.5308 12.144L95.8644 11.9772C95.92 11.9494 95.9478 11.8938 95.9478 11.8104C95.9478 11.6992 95.9617 11.6158 95.9895 11.5602L96.1563 11.3517C96.3787 11.0459 96.6289 10.7401 96.9069 10.4343C97.1849 10.1007 97.449 9.80876 97.6992 9.55856C97.9772 9.30836 98.2274 9.11376 98.4498 8.97476C98.6722 8.80796 98.8668 8.72456 99.0336 8.72456C99.0892 8.72456 99.1309 8.73846 99.1587 8.76626C99.2143 8.79406 99.3394 8.83576 99.534 8.89136L99.9927 9.47516C100.104 9.50296 100.201 9.61416 100.285 9.80876L100.41 10.1007V10.7679L100.535 10.9347C100.59 10.9903 100.632 11.0459 100.66 11.1015C100.688 11.1293 100.729 11.1571 100.785 11.1849L101.285 11.5185C101.313 11.6297 101.397 11.7687 101.536 11.9355C101.675 12.1023 101.814 12.2691 101.953 12.4359L102.536 13.1031C102.592 13.1865 102.648 13.3394 102.703 13.5618C102.759 13.7842 102.801 14.0205 102.828 14.2707C102.884 14.5209 102.926 14.7572 102.953 14.9796C102.981 15.1742 102.995 15.3132 102.995 15.3966V15.7302L102.62 16.6059L102.578 16.9395L102.161 17.3982L101.536 17.8986C101.397 17.982 101.216 18.0237 100.994 18.0237C100.771 18.0237 100.577 18.0932 100.41 18.2322L100.076 18.3573C99.9093 18.4685 99.7703 18.5241 99.6591 18.5241C99.6313 18.5241 99.6035 18.5241 99.5757 18.5241C99.5757 18.4963 99.5618 18.4824 99.534 18.4824L99.0336 18.5658C98.9224 18.6492 98.6861 18.6909 98.3247 18.6909C98.1301 18.6909 97.9772 18.677 97.866 18.6492L96.9069 18.399L95.9478 18.0654C95.5586 17.9542 95.2528 17.8569 95.0304 17.7735C94.8358 17.6901 94.6134 17.4121 94.3632 16.9395C94.3076 16.8005 94.252 16.6615 94.1964 16.5225C94.1408 16.3835 94.0852 16.2723 94.0296 16.1889L93.8628 15.5217L93.9879 15.2298ZM97.4073 16.6476L97.6158 16.6893C97.8382 16.6337 98.1023 16.592 98.4081 16.5642C98.7139 16.5086 98.9363 16.4391 99.0753 16.3557L99.4923 16.0638L99.8259 15.6885L99.951 15.3132L99.4506 13.395L98.7417 13.1031L98.6166 13.1865C98.561 13.2143 98.4776 13.3255 98.3664 13.5201C98.2552 13.6869 98.1301 13.8954 97.9911 14.1456C97.8799 14.3958 97.7548 14.6599 97.6158 14.9379C97.5046 15.2159 97.4212 15.4522 97.3656 15.6468L97.4073 16.6476ZM95.8644 12.978C95.7254 13.117 95.5586 13.3672 95.364 13.7286C95.1694 14.09 95.0721 14.4097 95.0721 14.6877C95.0721 14.7989 95.086 14.8823 95.1138 14.9379L95.1972 14.7294L95.8644 13.5201C95.9756 13.3533 96.0451 13.2282 96.0729 13.1448L95.8644 12.978Z" fill="#50627E"/>
<path d="M114.954 7.80716C115.177 7.75156 115.33 7.68206 115.413 7.59866C115.524 7.51526 115.649 7.47356 115.788 7.47356C115.844 7.47356 115.886 7.48746 115.913 7.51526C115.941 7.51526 115.983 7.51526 116.038 7.51526L116.789 7.80716C116.872 7.86276 116.914 7.96006 116.914 8.09906C116.942 8.57166 116.692 9.08596 116.164 9.64196C115.663 10.198 115.024 10.9625 114.245 11.9355L112.828 13.6869V13.7703L114.787 15.5217L115.288 16.1472H115.496C115.552 16.175 115.621 16.2584 115.705 16.3974C115.816 16.5086 115.899 16.5781 115.955 16.6059L116.08 17.0646C116.164 17.148 116.303 17.2592 116.497 17.3982C116.692 17.5094 116.831 17.5928 116.914 17.6484L116.747 17.8569L116.33 17.8152L116.998 18.1905L117.164 18.1488C117.164 18.121 117.178 18.1071 117.206 18.1071C117.317 18.1071 117.428 18.1905 117.54 18.3573V18.4824H117.331C117.22 18.4824 117.15 18.4963 117.123 18.5241C117.123 18.5241 117.053 18.538 116.914 18.5658L116.956 18.6909C116.956 18.7187 116.984 18.7604 117.039 18.816L117.081 18.8577C117.137 18.9967 117.164 19.0662 117.164 19.0662C117.164 19.0662 117.178 19.0662 117.206 19.0662L117.331 19.1079V18.9828C117.387 18.9828 117.47 18.9689 117.581 18.9411C117.72 18.9133 117.845 18.8994 117.957 18.8994C118.068 18.8994 118.123 18.9272 118.123 18.9828V19.1496C118.123 19.1774 118.137 19.2052 118.165 19.233C118.11 19.2886 118.082 19.372 118.082 19.4832V19.6917L118.29 19.6083L118.582 19.9419C118.666 20.0531 118.735 20.1365 118.791 20.1921C118.874 20.2477 118.944 20.3311 118.999 20.4423L119.041 20.6091L120 21.2763C119.972 21.3597 119.875 21.4848 119.708 21.6516C119.541 21.8462 119.333 22.0269 119.083 22.1937C118.86 22.3883 118.624 22.5412 118.374 22.6524C118.151 22.7914 117.943 22.8609 117.748 22.8609C117.693 22.8609 117.609 22.8331 117.498 22.7775C117.387 22.7219 117.289 22.6941 117.206 22.6941H117.123C117.067 22.6941 117.025 22.6941 116.998 22.6941C116.97 22.7219 116.928 22.7497 116.872 22.7775C116.733 22.6663 116.608 22.5134 116.497 22.3188C116.386 22.152 116.219 21.9991 115.997 21.8601L115.83 21.8184L115.58 21.5682C115.302 21.2902 115.065 21.04 114.871 20.8176C114.676 20.623 114.496 20.4284 114.329 20.2338C114.19 20.067 114.037 19.8863 113.87 19.6917C113.731 19.4693 113.564 19.2191 113.37 18.9411C113.092 18.6631 112.786 18.3851 112.452 18.1071C112.146 17.8013 111.841 17.5372 111.535 17.3148C111.257 17.0646 111.021 16.87 110.826 16.731C110.631 16.5642 110.52 16.4808 110.492 16.4808C110.353 16.4808 110.242 16.5364 110.159 16.6476C110.075 16.731 109.95 16.8561 109.783 17.0229L109.742 16.8144C109.742 16.7866 109.728 16.7727 109.7 16.7727C109.672 16.7727 109.617 16.8144 109.533 16.8978C109.45 16.9812 109.353 17.0785 109.241 17.1897C109.158 17.2731 109.075 17.3704 108.991 17.4816C108.908 17.565 108.852 17.6206 108.824 17.6484L108.949 17.7735C109.005 17.6901 109.061 17.5928 109.116 17.4816C109.2 17.3426 109.297 17.2731 109.408 17.2731H109.533V17.4399C109.533 17.4677 109.45 17.5789 109.283 17.7735C109.144 17.9403 108.991 18.0793 108.824 18.1905L106.573 20.1921L105.989 20.067L105.655 19.65L105.071 18.5658C105.21 18.4268 105.349 18.26 105.488 18.0654C105.655 17.8708 105.822 17.7318 105.989 17.6484L107.865 15.7302L108.491 14.8128L108.407 14.4792L108.491 14.3958L108.658 14.4792L108.741 14.2707C108.157 13.6035 107.712 12.978 107.407 12.3942C107.101 11.7826 106.656 11.2127 106.072 10.6845C106.044 10.6845 105.975 10.5594 105.864 10.3092C105.752 10.0312 105.669 9.89216 105.613 9.89216L105.53 9.80876C105.474 9.64196 105.391 9.47516 105.28 9.30836C105.169 9.11376 105.099 8.93306 105.071 8.76626V8.64116C105.099 8.47436 105.196 8.27976 105.363 8.05736C105.53 7.80716 105.752 7.68206 106.03 7.68206L107.24 7.39016C107.629 7.39016 107.921 7.55696 108.115 7.89056C108.338 8.22416 108.574 8.58556 108.824 8.97476C108.824 9.00256 108.894 9.05816 109.033 9.14156C109.172 9.19716 109.269 9.26666 109.325 9.35006C109.492 9.51686 109.644 9.72536 109.783 9.97556C109.922 10.198 110.048 10.4204 110.159 10.6428C110.27 10.8374 110.367 11.0181 110.451 11.1849C110.562 11.3517 110.673 11.449 110.784 11.4768L111.201 11.9355C111.285 11.8521 111.382 11.8104 111.493 11.8104L111.618 12.0189C111.702 11.7409 111.785 11.5602 111.868 11.4768C111.98 11.3656 112.119 11.2405 112.285 11.1015C112.48 10.9347 112.716 10.6984 112.994 10.3926C113.3 10.059 113.689 9.54466 114.162 8.84966L114.287 8.68286L114.162 8.59946C114.19 8.59946 114.204 8.58556 114.204 8.55776V8.39096C114.231 8.33536 114.357 8.23806 114.579 8.09906C114.801 7.96006 114.926 7.86276 114.954 7.80716Z" fill="#50627E"/>
<g clip-path="url(#clip0)">
<path d="M25.0742 20.2036C25.0742 20.2036 22.6811 22.0946 21.6836 22.8691C21.5519 22.972 21.3877 23.0415 21.2306 22.9085C21.0983 22.7958 21.1682 22.5631 21.2192 22.4275C21.2192 22.4275 22.9024 18.0852 23.3503 16.8784C23.4047 16.7315 23.4819 16.56 23.7393 16.5409C23.9522 16.5257 24.0862 16.7212 24.1234 16.7951L25.3312 19.1471C25.5296 19.5524 25.4207 19.9206 25.074 20.2033V20.2036H25.0742ZM18.521 24.5296C18.382 24.8895 17.8437 25.3444 17.3315 25.2446C17.251 25.229 17.0465 25.1763 16.9668 25.1539C16.8578 25.1267 3.22502 21.5871 3.03681 21.5327C2.57406 21.3987 2.26676 21.2054 2.13852 20.8173C2.02879 20.4867 2.25347 19.9704 2.4102 19.7097C2.84446 18.9877 8.9765 8.85761 9.02786 8.77084C9.26987 8.36253 9.55239 8.1403 10.025 8.09819L23.6084 6.95853C23.9614 6.92737 24.4147 6.90228 24.6382 7.23308C24.9428 7.68498 24.8469 8.0446 24.732 8.34435C24.732 8.34435 18.694 24.0787 18.5207 24.5288L18.521 24.5296ZM2.20902 5.24117C2.17755 5.11112 2.10269 4.74906 2.27463 4.61913C2.50856 4.44272 2.74653 4.56575 2.92325 4.67346L6.88889 7.1076C7.30635 7.36174 7.42278 7.92742 7.16897 8.43143L4.84137 12.2684C4.77087 12.3712 4.60329 12.6964 4.31566 12.6567C4.04643 12.6198 3.9905 12.3924 3.95967 12.2986L2.20838 5.24053L2.20902 5.24117ZM4.4171 2.58564L16.0685 1.78103C16.6595 1.72818 17.167 1.90692 17.7009 2.16212C19.0338 2.80096 22.6412 4.58606 22.6412 4.58606C22.8227 4.67165 23.0442 4.81595 22.9799 5.00256C22.8853 5.27562 22.5964 5.26807 22.3926 5.28593L9.58503 6.3602C9.22882 6.3602 8.93471 6.27556 8.62709 6.09894L4.26643 3.42343C4.09035 3.30912 3.93967 3.13739 3.99709 2.89017C4.06791 2.58649 4.4171 2.58532 4.4171 2.58532V2.58564ZM24.5638 13.7129L26.9688 7.42671C27.6099 5.81397 26.9585 4.71674 25.7558 4.14446L18.5789 0.622758C17.7788 0.239964 17.1597 -0.0691418 15.9792 0.0115639L2.42615 0.949409C1.7451 1.01502 0.947184 1.3825 0.516434 1.97774C0.0836645 2.57511 -0.0288344 3.56687 0.150228 4.28003L2.93293 15.4355C2.62361 15.8981 1.00918 18.6187 0.446468 19.5457C0.0481497 20.2009 -0.166215 20.9114 0.153737 21.6548C0.462205 22.3708 1.21833 22.8776 1.97849 23.0803C5.80239 24.0983 17.3998 27.0944 17.5147 27.1241C17.7355 27.1833 17.9188 27.2194 18.1459 27.2194C18.7282 27.2194 19.2671 26.9962 19.7193 26.6402L26.2372 21.5288C27.1808 20.7831 27.4905 19.5013 26.951 18.4358L24.5638 13.7124L24.5635 13.713L24.5638 13.7129Z" fill="#50627E"/>
</g>
<defs>
<clipPath id="clip0">
<rect width="27.2209" height="27.2209" fill="white"/>
</clipPath>
</defs>
</svg>
