<svg width="118" height="24" viewBox="0 0 118 24" fill="none" xmlns="http://www.w3.org/2000/svg">
<g clip-path="url(#clip0)">
<path d="M22.1071 17.8129C22.1071 17.8129 19.9972 19.4801 19.1177 20.163C19.0017 20.2537 18.8569 20.315 18.7184 20.1977C18.6017 20.0983 18.6633 19.8932 18.7083 19.7737C18.7083 19.7737 20.1924 15.9451 20.5873 14.8811C20.6353 14.7516 20.7033 14.6003 20.9302 14.5836C21.118 14.5702 21.2361 14.7425 21.2689 14.8076L22.3337 16.8814C22.5087 17.2388 22.4127 17.5633 22.107 17.8126V17.8129H22.1071ZM16.3294 21.627C16.2068 21.9443 15.7322 22.3454 15.2806 22.2574C15.2097 22.2436 15.0294 22.1972 14.9591 22.1774C14.863 22.1534 2.84329 19.0327 2.67735 18.9847C2.26935 18.8665 1.99842 18.6961 1.88535 18.3539C1.7886 18.0624 1.9867 17.6073 2.12489 17.3774C2.50776 16.7408 7.91423 7.80938 7.95951 7.73288C8.17288 7.37288 8.42198 7.17694 8.8387 7.13982L20.8148 6.135C21.126 6.10754 21.5257 6.08541 21.7228 6.37707C21.9914 6.7755 21.9068 7.09257 21.8054 7.35685C21.8054 7.35685 16.4819 21.2294 16.3291 21.6263L16.3294 21.627ZM1.94751 4.62085C1.91976 4.50619 1.85376 4.18697 2.00535 4.07241C2.2116 3.91688 2.42142 4.02535 2.57723 4.12032L6.07364 6.26644C6.4417 6.4905 6.54435 6.98925 6.32057 7.43363L4.26838 10.8166C4.20623 10.9073 4.05848 11.1939 3.80488 11.159C3.56751 11.1264 3.5182 10.9259 3.49101 10.8432L1.94695 4.62029L1.94751 4.62085ZM3.89432 2.27954L14.1671 1.57013C14.6881 1.52354 15.1356 1.68113 15.6063 1.90613C16.7815 2.46938 19.962 4.04325 19.962 4.04325C20.1221 4.11872 20.3174 4.24594 20.2607 4.41047C20.1773 4.65122 19.9226 4.64457 19.7429 4.66032L8.45076 5.60747C8.1367 5.60747 7.87738 5.53285 7.60617 5.37713L3.76148 3.01819C3.60623 2.91741 3.47338 2.76601 3.52401 2.54804C3.58645 2.28029 3.89432 2.27926 3.89432 2.27926V2.27954ZM21.6571 12.0902L23.7776 6.54779C24.3429 5.12588 23.7685 4.15847 22.7082 3.65391L16.3804 0.548912C15.675 0.211412 15.1291 -0.0611195 14.0883 0.0100367L2.13895 0.836911C1.53848 0.894755 0.834979 1.21876 0.455197 1.74357C0.0736349 2.27026 -0.0255526 3.14466 0.132322 3.77344L2.58576 13.6089C2.31304 14.0168 0.889635 16.4155 0.39351 17.2328C0.0423224 17.8104 -0.146678 18.4369 0.135416 19.0924C0.407385 19.7236 1.07404 20.1705 1.74426 20.3492C5.1157 21.2468 15.3408 23.8883 15.4422 23.9145C15.6368 23.9667 15.7984 23.9985 15.9987 23.9985C16.512 23.9985 16.9872 23.8017 17.3859 23.4878L23.1326 18.9813C23.9645 18.3238 24.2376 17.1937 23.7619 16.2542L21.6571 12.0897L21.6569 12.0903L21.6571 12.0902Z" fill="white"/>
</g>
<path d="M37.5846 8.22496C37.668 7.91916 37.807 7.66896 38.0016 7.47436C38.1962 7.25196 38.363 7.00176 38.502 6.72376C38.5298 6.69596 38.6132 6.58476 38.7522 6.39016C38.8912 6.19556 39.0441 5.98706 39.2109 5.76466C39.3777 5.51446 39.5306 5.30596 39.6696 5.13916C39.8364 4.94456 39.9476 4.84726 40.0032 4.84726C40.0032 4.73605 40.0449 4.61095 40.1283 4.47195C40.2395 4.33295 40.3507 4.20785 40.4619 4.09665C40.6009 3.95765 40.726 3.84645 40.8372 3.76305C40.9762 3.67965 41.0735 3.63795 41.1291 3.63795H41.3793L41.4627 3.80475H41.838C41.977 3.83255 42.1021 3.90205 42.2133 4.01325C42.3523 4.09665 42.4913 4.15225 42.6303 4.18005H42.9639C43.7979 4.37465 44.618 4.65265 45.4242 5.01406C46.2582 5.34766 46.9532 5.88976 47.5092 6.64036C47.6482 7.08516 47.7872 7.51606 47.9262 7.93306C48.0652 8.32226 48.2181 8.73926 48.3849 9.18407C48.3849 9.40647 48.371 9.69837 48.3432 10.0598C48.3432 10.3934 48.3154 11.0884 48.2598 12.1448V12.395C48.2598 12.5618 48.2042 12.7981 48.093 13.1039C48.0096 13.4097 47.8984 13.7155 47.7594 14.0213C47.6482 14.3271 47.5231 14.5912 47.3841 14.8136C47.2451 15.036 47.1339 15.1472 47.0505 15.1472L47.0088 15.1889C46.8698 15.4113 46.6196 15.6893 46.2582 16.0229C45.9246 16.3565 45.5076 16.6901 45.0072 17.0237C44.5068 17.3573 43.9508 17.6492 43.3392 17.8994C42.7276 18.1218 42.0882 18.233 41.421 18.233C40.9762 18.233 40.5453 18.1913 40.1283 18.1079C39.7113 17.9967 39.3221 17.8716 38.9607 17.7326L38.5854 17.3156L37.668 17.1488C37.5012 17.0376 37.3483 16.8847 37.2093 16.6901C37.0981 16.4677 36.9869 16.2731 36.8757 16.1063C36.4865 15.6893 36.2363 15.2584 36.1251 14.8136C36.0417 14.341 36 13.785 36 13.1456C36 13.0066 36.0139 12.9093 36.0417 12.8537C36.0695 12.7703 36.0834 12.6591 36.0834 12.5201V12.395C36.0834 12.3672 36.0973 12.2838 36.1251 12.1448C36.1807 12.0058 36.2224 11.8668 36.2502 11.7278C36.3058 11.561 36.3475 11.422 36.3753 11.3108C36.4309 11.1718 36.4587 11.0745 36.4587 11.0189L36.7089 10.6853C36.7089 10.6019 36.7506 10.5185 36.834 10.4351C36.9174 10.3239 36.9591 10.2405 36.9591 10.1849L37.0425 10.31C37.0703 10.2544 37.0981 10.1571 37.1259 10.0181C37.1537 9.87907 37.1815 9.79567 37.2093 9.76787L37.3344 9.47597C37.3344 9.42037 37.3483 9.32307 37.3761 9.18407C37.4317 9.04507 37.4734 8.94776 37.5012 8.89216H37.2927C37.2649 8.89216 37.2371 8.90607 37.2093 8.93387L37.5846 8.22496ZM39.7947 12.8537C39.7947 12.9649 39.7808 13.1178 39.753 13.3124C39.753 13.507 39.753 13.7016 39.753 13.8962C39.753 14.1742 39.7808 14.4244 39.8364 14.6468L40.0866 15.9812L40.5036 15.8978C40.587 16.009 40.7121 16.0646 40.8789 16.0646C41.2403 16.0646 41.6156 16.009 42.0048 15.8978C42.394 15.7588 42.7415 15.5503 43.0473 15.2723L43.7979 14.2715L44.2149 13.3124L44.34 12.3116C44.4512 12.0614 44.5207 11.8112 44.5485 11.561C44.5763 11.3108 44.5902 11.0606 44.5902 10.8104V9.97637C44.5902 9.61497 44.5763 9.15627 44.5485 8.60027C44.5485 8.01646 44.4234 7.57166 44.1732 7.26586C43.9786 7.04346 43.7145 6.77936 43.3809 6.47356C43.0751 6.16776 42.811 6.01486 42.5886 6.01486C42.4774 6.01486 42.3384 6.09826 42.1716 6.26506C42.0326 6.43186 41.9353 6.51526 41.8797 6.51526C41.6295 6.70986 41.4766 6.96006 41.421 7.26586C41.3932 7.57166 41.3098 7.86356 41.1708 8.14156L41.0874 8.76706C40.726 9.48987 40.4202 10.171 40.17 10.8104C39.9198 11.4498 39.7947 12.1309 39.7947 12.8537ZM37.9599 9.47597L37.5846 10.31C37.5846 10.4212 37.5707 10.5185 37.5429 10.6019C37.5151 10.6853 37.5012 10.7826 37.5012 10.8938L37.6263 10.9355L38.0016 10.0181C38.0016 9.96247 38.0016 9.86517 38.0016 9.72617C38.0294 9.58717 38.0572 9.50377 38.085 9.47597H37.9599ZM36.4587 11.7278C36.4031 11.7834 36.3753 11.8807 36.3753 12.0197L36.3336 12.2699L36.5004 12.1031C36.5004 12.0475 36.5143 11.978 36.5421 11.8946C36.5977 11.8112 36.6255 11.7556 36.6255 11.7278L36.7089 11.5193L36.4587 11.7278ZM36.8757 10.727C36.7645 10.8382 36.7089 10.9494 36.7089 11.0606V11.1857L37.0425 10.7687L36.8757 10.727ZM37.9599 8.47516C37.9599 8.39176 37.9321 8.35006 37.8765 8.35006C37.8209 8.35006 37.7931 8.39176 37.7931 8.47516C37.7931 8.53076 37.8209 8.55856 37.8765 8.55856C37.8765 8.55856 37.9043 8.53076 37.9599 8.47516ZM37.2093 11.6444L37.3344 11.561L37.3761 11.2274L37.2093 11.6444Z" fill="white"/>
<path d="M50.7583 13.7711L51.217 12.6452C51.217 12.5896 51.2031 12.5479 51.1753 12.5201C51.1753 12.4923 51.1753 12.4506 51.1753 12.395C51.1753 12.1448 51.2309 11.8668 51.3421 11.561C51.4533 11.2274 51.5923 10.8799 51.7591 10.5185C51.9259 10.1571 52.1066 9.80957 52.3012 9.47597C52.5236 9.11456 52.7321 8.76706 52.9267 8.43346C52.8989 8.40566 52.885 8.37786 52.885 8.35006C52.885 8.23886 52.9267 8.14156 53.0101 8.05816C53.1213 7.94696 53.2186 7.89136 53.302 7.89136C53.5522 7.89136 53.8302 7.94696 54.136 8.05816C54.4418 8.16936 54.7198 8.32226 54.97 8.51686C55.248 8.68366 55.4843 8.89216 55.6789 9.14236C55.8735 9.36477 55.9708 9.61497 55.9708 9.89297L55.8874 10.2266L59.14 8.80876H59.8906C59.8906 8.75316 59.9184 8.72536 59.974 8.72536C60.0574 8.69757 60.113 8.68367 60.1408 8.68367C60.3076 8.68367 60.4188 8.71146 60.4744 8.76706C60.5578 8.82266 60.669 8.91996 60.808 9.05897L61.3084 9.14236C61.4196 9.19796 61.5864 9.28137 61.8088 9.39257C62.059 9.50377 62.1841 9.60107 62.1841 9.68447V10.3934H62.0173L61.9756 10.5185C61.9756 10.5463 61.9895 10.5602 62.0173 10.5602H62.1007C62.1285 10.588 62.1563 10.6019 62.1841 10.6019V10.727L62.1007 10.8521C62.1007 11.0745 62.1285 11.1996 62.1841 11.2274C62.1841 11.5054 62.1424 11.8529 62.059 12.2699C61.9756 12.6869 61.8227 12.9649 61.6003 13.1039H61.8922C61.8366 13.1595 61.8088 13.229 61.8088 13.3124C61.8088 13.3958 61.8227 13.4514 61.8505 13.4792C61.8783 13.4792 61.8922 13.4931 61.8922 13.5209C61.8922 13.7433 61.8505 13.9657 61.7671 14.1881C61.7115 14.4105 61.6837 14.5773 61.6837 14.6885L61.5169 15.314C61.4613 15.5364 61.3918 15.7171 61.3084 15.8561C61.2528 15.9951 61.225 16.2175 61.225 16.5233L61.3084 16.7318C61.3084 16.8152 61.2667 16.9264 61.1833 17.0654C61.0999 17.2044 61.0582 17.3434 61.0582 17.4824C61.0582 17.7604 61.086 17.9272 61.1416 17.9828V18.0662L60.9331 18.1496L60.808 18.3998C60.6412 18.4554 60.53 18.511 60.4744 18.5666C60.4466 18.5944 60.4188 18.6222 60.391 18.65C60.3632 18.65 60.3076 18.6639 60.2242 18.6917C60.1408 18.6917 59.9601 18.6917 59.6821 18.6917C59.4041 18.6917 59.1817 18.5805 59.0149 18.3581C58.8759 18.1357 58.7647 17.8855 58.6813 17.6075C58.5979 17.3017 58.5423 16.9959 58.5145 16.6901C58.5145 16.3565 58.5145 16.1063 58.5145 15.9395C58.5145 15.5225 58.5145 15.175 58.5145 14.897C58.5145 14.5912 58.5145 14.3132 58.5145 14.063C58.5423 13.785 58.5701 13.507 58.5979 13.229C58.6257 12.9232 58.6674 12.5618 58.723 12.1448C58.723 12.0336 58.6952 11.8529 58.6396 11.6027C58.6118 11.3247 58.5979 11.1579 58.5979 11.1023L58.1392 11.2691C57.4998 11.5471 56.8604 11.8946 56.221 12.3116C55.5816 12.7286 55.2063 13.229 55.0951 13.8128L55.0117 14.1881L55.1368 14.2715C55.0812 14.4105 55.0395 14.5217 55.0117 14.6051C55.0117 14.6607 55.0117 14.8136 55.0117 15.0638L55.3453 14.8136V14.8553C55.3453 15.2445 55.2202 15.5364 54.97 15.731C54.7476 15.8978 54.6364 16.1063 54.6364 16.3565L54.9283 17.4824L54.8449 18.6083H54.4279C54.3723 18.6361 54.2889 18.6778 54.1777 18.7334C54.0943 18.8168 54.0109 18.8585 53.9275 18.8585L51.9259 18.65L50.5498 17.9828L50.9251 17.4824C50.8695 17.538 50.8278 17.5658 50.8 17.5658H50.7583C50.6749 17.5658 50.6193 17.5519 50.5914 17.5241C50.5914 17.3851 50.6193 17.2878 50.6749 17.2322L50.7583 17.399L51.4672 16.6067C51.4672 16.4955 51.4255 16.4121 51.3421 16.3565C51.2587 16.4399 51.2031 16.4955 51.1753 16.5233C51.1475 16.5233 50.9946 16.5233 50.7166 16.5233C50.7166 16.2453 50.7583 16.0229 50.8417 15.8561C50.9529 15.6615 51.0085 15.4947 51.0085 15.3557H50.9251C50.8695 15.3557 50.8 15.3001 50.7166 15.1889C50.661 15.1889 50.6054 15.2028 50.5498 15.2306C50.522 15.2584 50.4942 15.2723 50.4663 15.2723C50.4942 15.1889 50.5637 15.0499 50.6749 14.8553C50.8139 14.6329 50.8834 14.48 50.8834 14.3966L50.7583 13.7711ZM51.3421 16.1063C51.4811 16.1063 51.5367 16.0507 51.5089 15.9395C51.5089 15.8005 51.5645 15.5642 51.6757 15.2306C51.5923 15.2306 51.5089 15.3279 51.4255 15.5225C51.3421 15.6893 51.3004 15.8422 51.3004 15.9812C51.3004 16.0368 51.3143 16.0785 51.3421 16.1063ZM50.8834 14.897H50.7583V14.9387C50.7583 14.9665 50.8139 15.0221 50.9251 15.1055L50.8834 14.897ZM51.0085 15.9395V15.6893C50.9807 15.6893 50.9668 15.7032 50.9668 15.731C50.9668 15.7588 50.9529 15.7866 50.9251 15.8144C50.9251 15.8144 50.9251 15.8283 50.9251 15.8561L51.0085 15.9395ZM51.217 14.6885V14.4383L51.1336 14.6051L51.217 14.6885Z" fill="white"/>
<path d="M68.6818 14.0213C68.8486 14.0213 68.9737 13.9796 69.0571 13.8962C69.1683 13.8128 69.2517 13.7294 69.3073 13.646C69.3629 13.5626 69.4185 13.4792 69.4741 13.3958C69.5575 13.3124 69.6548 13.2707 69.766 13.2707C70.1274 13.2707 70.461 13.1317 70.7668 12.8537C71.1004 12.5479 71.2672 11.8529 71.2672 10.7687V9.97637C71.2672 9.83737 71.2116 9.71227 71.1004 9.60107C70.9892 9.48987 70.9058 9.43427 70.8502 9.43427C70.8224 9.46207 70.7251 9.51767 70.5583 9.60107C70.3915 9.68447 70.2108 9.79567 70.0162 9.93467C69.8216 10.0459 69.627 10.171 69.4324 10.31C69.2378 10.449 69.0849 10.588 68.9737 10.727V11.144C68.9181 11.5888 68.8069 12.0753 68.6401 12.6035C68.4733 13.1317 68.3899 13.6321 68.3899 14.1047H68.6401L68.6818 14.0213ZM74.6449 12.812L74.1028 13.4375L73.8526 13.6043C73.5468 13.7433 73.2549 13.8962 72.9769 14.063C72.6989 14.202 72.4209 14.3132 72.1429 14.3966L71.9761 14.5634H71.7676C71.6008 14.5634 71.4896 14.619 71.434 14.7302C71.4062 14.8414 71.3089 14.9109 71.1421 14.9387C70.8363 14.9943 70.6417 15.0499 70.5583 15.1055C70.4749 15.1611 70.4332 15.2028 70.4332 15.2306C70.461 15.2862 70.4749 15.314 70.4749 15.314C70.4749 15.3418 70.4193 15.3696 70.3081 15.3974C70.2247 15.4252 70.1274 15.453 70.0162 15.4808C69.905 15.4808 69.8077 15.4947 69.7243 15.5225C69.6409 15.5225 69.6131 15.5225 69.6409 15.5225H69.4324C69.349 15.6059 69.1266 15.6615 68.7652 15.6893C68.4038 15.7171 68.1119 15.8005 67.8895 15.9395L68.1397 16.9403C68.2787 16.9959 68.4594 17.0515 68.6818 17.1071C68.932 17.1627 69.1822 17.2044 69.4324 17.2322C69.6826 17.26 69.9189 17.2878 70.1413 17.3156C70.3637 17.3156 70.5305 17.3156 70.6417 17.3156C71.0309 17.3156 71.4062 17.3017 71.7676 17.2739C72.1568 17.2183 72.5599 17.1905 72.9769 17.1905C73.3661 17.1905 73.7414 17.2322 74.1028 17.3156C74.4642 17.3712 74.8117 17.5102 75.1453 17.7326V18.0245C75.1453 18.1635 75.1314 18.3303 75.1036 18.5249C75.1036 18.6917 75.0619 18.8029 74.9785 18.8585L74.8117 18.9419C74.7839 18.9697 74.6727 18.9975 74.4781 19.0253C74.2835 19.0809 74.0611 19.1365 73.8109 19.1921C73.5607 19.2477 73.2966 19.2894 73.0186 19.3172C72.7684 19.3728 72.5738 19.4006 72.4348 19.4006C71.8788 19.4006 71.3228 19.4006 70.7668 19.4006C70.2386 19.4284 69.6965 19.4423 69.1405 19.4423C68.7235 19.4423 68.2648 19.3728 67.7644 19.2338C67.2918 19.0948 66.8331 18.9002 66.3883 18.65C65.9713 18.3998 65.596 18.094 65.2624 17.7326C64.9566 17.3712 64.762 16.9681 64.6786 16.5233L64.8037 16.2314C64.8037 16.1758 64.8176 16.0646 64.8454 15.8978C64.8732 15.731 64.901 15.5364 64.9288 15.314V14.9387H65.2207L65.2624 14.897C65.2624 14.7302 65.2763 14.6329 65.3041 14.6051C65.3041 14.5773 65.2763 14.5495 65.2207 14.5217C65.1929 14.4661 65.179 14.4105 65.179 14.3549C65.179 14.3271 65.2207 14.2854 65.3041 14.2298L65.3458 13.6877C65.3458 13.5765 65.3458 13.4514 65.3458 13.3124C65.3736 13.1734 65.4431 12.9927 65.5543 12.7703L65.6794 12.6869C65.6794 12.5757 65.6238 12.4645 65.5126 12.3533C65.596 12.3255 65.6516 12.2421 65.6794 12.1031C65.7072 11.9641 65.7489 11.8946 65.8045 11.8946C65.8323 11.8946 65.8462 11.9085 65.8462 11.9363C65.8462 11.9363 65.8601 11.9363 65.8879 11.9363L66.0547 12.0614C66.0825 12.0336 66.0964 12.0197 66.0964 12.0197H66.2215C66.3049 12.0197 66.3466 11.9919 66.3466 11.9363C66.3466 11.7973 66.2771 11.6861 66.1381 11.6027C66.0269 11.4915 65.9713 11.3664 65.9713 11.2274C65.9713 11.1718 65.9852 11.1301 66.013 11.1023C66.013 11.0467 65.9991 11.005 65.9713 10.9772C65.9435 10.9494 65.9296 10.9216 65.9296 10.8938L66.0547 10.8521C66.2215 10.4351 66.4022 10.1154 66.5968 9.89297C66.8192 9.67057 67.0555 9.44817 67.3057 9.22577L67.5142 9.10067C67.9034 8.85046 68.2787 8.57246 68.6401 8.26666C69.0293 7.96086 69.4602 7.80796 69.9328 7.80796C70.4054 7.80796 70.9058 7.86356 71.434 7.97476C71.99 8.05816 72.5182 8.09986 73.0186 8.09986C73.6858 8.43346 74.0611 8.64196 74.1445 8.72536C74.2557 8.78096 74.3391 8.80876 74.3947 8.80876L74.353 9.22577L74.6866 9.47597L74.8117 9.72617L74.5198 10.1015L74.77 10.4351L74.5198 10.8104C74.4642 10.866 74.4364 10.9355 74.4364 11.0189C74.4364 11.1023 74.4364 11.1718 74.4364 11.2274L74.4781 11.2691L74.5198 11.4776L74.4364 11.9363L74.7283 12.0614V12.3116L74.5615 12.4367L74.6449 12.5618V12.812ZM74.7283 11.1023H74.8117C74.8673 11.1023 74.8951 11.144 74.8951 11.2274C74.8951 11.3386 74.8395 11.3942 74.7283 11.3942C74.6727 11.3942 74.6449 11.3386 74.6449 11.2274C74.6449 11.144 74.6727 11.1023 74.7283 11.1023ZM74.8951 11.6861C74.8951 11.7973 74.8673 11.8529 74.8117 11.8529C74.7561 11.8529 74.7283 11.7973 74.7283 11.6861C74.7283 11.6305 74.7422 11.6027 74.77 11.6027C74.7978 11.6027 74.8395 11.6305 74.8951 11.6861Z" fill="white"/>
<path d="M77.6701 16.6484C77.6701 16.6206 77.6701 16.5233 77.6701 16.3565C77.6979 16.1897 77.7118 16.0229 77.7118 15.8561C77.7396 15.6615 77.7535 15.4947 77.7535 15.3557C77.7813 15.1889 77.7952 15.0777 77.7952 15.0221L78.0037 14.5634C78.0037 14.5078 78.0454 14.4244 78.1288 14.3132C78.2122 14.1742 78.2539 14.0769 78.2539 14.0213L78.4207 14.1464V13.4375L78.5875 13.1039C78.5875 13.0761 78.5736 13.0483 78.5458 13.0205C78.5458 12.9927 78.5458 12.951 78.5458 12.8954C78.5458 12.812 78.5458 12.7286 78.5458 12.6452C78.5736 12.534 78.5875 12.4506 78.5875 12.395C78.4485 12.395 78.3651 12.4089 78.3373 12.4367L78.2539 12.4784L78.0871 12.395C78.0871 12.3116 78.101 12.2421 78.1288 12.1865L78.2122 11.8946C78.2678 11.5054 78.3095 11.1301 78.3373 10.7687C78.3929 10.4073 78.4207 10.032 78.4207 9.64277L79.0045 5.55616C79.0045 5.50056 79.0045 5.36156 79.0045 5.13916C79.0323 4.91676 79.074 4.68046 79.1296 4.43025L79.2964 3.42945L79.4632 2.92905C79.4632 2.84565 79.5327 2.67885 79.6717 2.42865C79.8107 2.15065 79.8802 1.96995 79.8802 1.88655V1.71975V1.59465C79.8802 1.20545 80.047 0.983045 80.3806 0.927445C80.742 0.871845 81.1312 0.788446 81.5482 0.677246L81.7567 0.802346C81.8679 0.941346 81.9652 0.996946 82.0486 0.969147C82.132 0.913546 82.2988 0.996946 82.549 1.21935L83.0077 1.59465L83.2162 1.88655V2.09505C83.2162 2.15065 83.2162 2.20625 83.2162 2.26185C83.244 2.31745 83.2579 2.37305 83.2579 2.42865L83.2996 2.72055C83.2996 3.10975 83.2023 3.45725 83.0077 3.76305C82.8131 4.04105 82.7158 4.37465 82.7158 4.76385V4.93066L82.549 5.26426C82.5212 5.40326 82.5073 5.55616 82.5073 5.72296C82.5073 5.88976 82.5073 6.02876 82.5073 6.13996L82.549 6.30676C82.549 6.36236 82.5212 6.57086 82.4656 6.93226C82.4378 7.26586 82.4239 7.46046 82.4239 7.51606L82.5073 7.68286C82.5073 7.76626 82.4795 7.80796 82.4239 7.80796L82.5073 7.89136V9.30917C82.4517 9.30917 82.4239 9.33697 82.4239 9.39257V9.64277L82.549 9.55937C82.5212 9.61497 82.4934 9.74007 82.4656 9.93467C82.4656 10.1015 82.4239 10.3378 82.3405 10.6436C82.4517 10.5046 82.6185 10.3656 82.8409 10.2266C83.0911 10.0876 83.3552 9.96247 83.6332 9.85127C83.939 9.74007 84.2587 9.64277 84.5923 9.55937C84.9259 9.47597 85.2317 9.39257 85.5097 9.30917C85.5375 9.28137 85.6348 9.25356 85.8016 9.22577C85.9684 9.19796 86.0935 9.15627 86.1769 9.10067L86.6773 9.18407H86.8441C86.9553 9.18407 87.0527 9.15627 87.136 9.10067L87.8867 9.22577L89.0126 10.3934L89.096 10.7687L89.2628 11.561L89.2211 11.7278H89.3045C89.2767 11.7834 89.2628 11.8112 89.2628 11.8112C89.2628 11.839 89.2628 11.8668 89.2628 11.8946C89.2906 11.8946 89.3045 11.9224 89.3045 11.978V12.1031C89.3045 12.1587 89.2906 12.2282 89.2628 12.3116C89.235 12.3672 89.2211 12.4228 89.2211 12.4784L89.2628 12.6452C89.2628 12.7842 89.235 12.9371 89.1794 13.1039C89.1516 13.2707 89.1238 13.4097 89.096 13.5209L88.9292 13.7294C88.9292 13.8128 88.957 13.8545 89.0126 13.8545C89.0126 14.0491 88.9848 14.2298 88.9292 14.3966C88.9014 14.5356 88.8875 14.619 88.8875 14.6468V14.7302V14.7719V14.7302C88.8875 14.7024 88.9014 14.6885 88.9292 14.6885V14.7302L88.8041 15.1472L88.7206 15.2306L88.8041 15.6059C88.8041 15.7171 88.7762 15.9395 88.7206 16.2731C88.665 16.5789 88.6372 16.7596 88.6372 16.8152L88.3871 17.9411C88.3314 18.1079 88.1507 18.2469 87.845 18.3581C87.5392 18.4693 87.3306 18.5666 87.2194 18.65L86.4688 18.7751C86.3298 18.7751 86.1074 18.7751 85.8016 18.7751C85.5236 18.8029 85.19 18.8168 84.8008 18.8168C84.2448 18.8168 83.7027 18.7751 83.1745 18.6917C82.6741 18.6361 82.4239 18.4554 82.4239 18.1496C82.0347 18.1496 81.7567 17.955 81.5899 17.5658C81.5899 17.5936 81.576 17.6353 81.5482 17.6909C81.5482 17.7187 81.5482 17.7882 81.5482 17.8994C81.5482 18.0662 81.5621 18.2052 81.5899 18.3164C81.5065 18.4276 81.4092 18.5666 81.298 18.7334C81.2146 18.9002 81.1312 19.0114 81.0478 19.067C80.9922 19.0392 80.9366 18.9836 80.881 18.9002C80.8532 18.8446 80.8115 18.8168 80.7559 18.8168C80.7003 18.8168 80.6308 18.8585 80.5474 18.9419C80.1304 18.6917 79.7412 18.5666 79.3798 18.5666C79.0462 18.5666 78.7404 18.5527 78.4624 18.5249C78.2122 18.4693 78.0037 18.3442 77.8369 18.1496C77.6979 17.955 77.6284 17.5658 77.6284 16.982C77.6284 16.9264 77.6284 16.8708 77.6284 16.8152C77.6562 16.7596 77.6701 16.704 77.6701 16.6484ZM81.5899 16.9403C82.2571 16.8847 82.8826 16.7735 83.4664 16.6067C84.078 16.4399 84.6201 16.287 85.0927 16.148L85.3429 16.0646C85.3985 16.0368 85.4402 16.0229 85.468 16.0229C85.4958 16.0229 85.5236 16.009 85.5514 15.9812L85.7182 15.314L86.1352 11.6861V11.1023C85.9406 11.1857 85.6765 11.283 85.3429 11.3942C85.0371 11.4776 84.7174 11.5888 84.3838 11.7278C84.0502 11.839 83.7444 11.978 83.4664 12.1448C83.1884 12.3116 83.0077 12.4923 82.9243 12.6869C82.8965 12.7425 82.8826 12.7981 82.8826 12.8537C82.8826 12.9093 82.8687 12.951 82.8409 12.9788L81.8818 14.2298L81.7567 14.8136V14.9387C81.7567 14.9665 81.7428 15.0499 81.715 15.1889C81.6872 15.3279 81.6733 15.4252 81.6733 15.4808C81.6733 15.5086 81.7011 15.5225 81.7567 15.5225C81.7567 15.5781 81.7428 15.6615 81.715 15.7727C81.6872 15.8561 81.6733 15.9256 81.6733 15.9812L81.5065 16.8569L81.5899 16.9403ZM79.2964 13.0205L79.1713 13.2707C79.1713 13.3819 79.1296 13.5487 79.0462 13.7711C78.9906 13.9935 78.9628 14.1325 78.9628 14.1881C78.9628 14.2437 78.9628 14.2854 78.9628 14.3132C78.9906 14.3132 79.0045 14.341 79.0045 14.3966V14.6468H79.1713L79.2964 14.3549C79.2964 14.2715 79.3242 14.1603 79.3798 14.0213C79.4354 13.8545 79.4632 13.7155 79.4632 13.6043C79.4632 13.5487 79.4493 13.4931 79.4215 13.4375C79.4215 13.3541 79.4215 13.2846 79.4215 13.229V12.9788L79.2964 13.0205ZM78.2956 14.5634C78.2122 14.619 78.1566 14.7024 78.1288 14.8136C78.101 14.9248 78.0871 14.9943 78.0871 15.0221V15.2306L78.2956 15.0221L78.4207 14.5634H78.2956ZM78.0037 15.8561C77.9759 15.8839 77.962 15.9117 77.962 15.9395L77.9203 16.4399L78.0454 16.2731V16.1063C78.0454 16.0507 78.0454 16.009 78.0454 15.9812C78.0732 15.9256 78.0871 15.87 78.0871 15.8144V15.5225L78.0037 15.8561ZM79.0879 11.8112C79.0323 11.7556 78.9906 11.7278 78.9628 11.7278C78.8794 11.7278 78.8377 11.7834 78.8377 11.8946C78.8377 11.978 78.8794 12.0197 78.9628 12.0197C79.0184 12.0197 79.0601 11.9502 79.0879 11.8112ZM78.8377 15.5225L79.0045 15.3557V15.0638L78.8377 15.5225Z" fill="white"/>
<path d="M91.508 14.2298C91.508 14.1742 91.5219 14.1325 91.5497 14.1047C91.5775 14.0491 91.6053 13.9935 91.6331 13.9379L91.7582 13.8128C91.7582 13.4236 91.8833 12.9371 92.1335 12.3533C92.4115 11.7695 92.7173 11.3664 93.0509 11.144L93.3845 10.9772C93.4401 10.9494 93.4679 10.8938 93.4679 10.8104C93.4679 10.6992 93.4818 10.6158 93.5096 10.5602L93.6764 10.3517C93.8988 10.0459 94.149 9.74007 94.427 9.43427C94.705 9.10067 94.9692 8.80876 95.2194 8.55856C95.4974 8.30836 95.7476 8.11376 95.97 7.97476C96.1924 7.80796 96.387 7.72456 96.5538 7.72456C96.6094 7.72456 96.6511 7.73846 96.6789 7.76626C96.7345 7.79406 96.8596 7.83576 97.0542 7.89136L97.5129 8.47516C97.6241 8.50296 97.7214 8.61416 97.8048 8.80876L97.9299 9.10067V9.76787L98.055 9.93467C98.1106 9.99027 98.1523 10.0459 98.1801 10.1015C98.2079 10.1293 98.2496 10.1571 98.3052 10.1849L98.8056 10.5185C98.8334 10.6297 98.9168 10.7687 99.0558 10.9355C99.1948 11.1023 99.3338 11.2691 99.4728 11.4359L100.057 12.1031C100.112 12.1865 100.168 12.3394 100.223 12.5618C100.279 12.7842 100.321 13.0205 100.348 13.2707C100.404 13.5209 100.446 13.7572 100.474 13.9796C100.501 14.1742 100.515 14.3132 100.515 14.3966V14.7302L100.14 15.6059L100.098 15.9395L99.6813 16.3982L99.0558 16.8986C98.9168 16.982 98.7361 17.0237 98.5137 17.0237C98.2913 17.0237 98.0967 17.0932 97.9299 17.2322L97.5963 17.3573C97.4295 17.4685 97.2905 17.5241 97.1793 17.5241C97.1515 17.5241 97.1237 17.5241 97.0959 17.5241C97.0959 17.4963 97.082 17.4824 97.0542 17.4824L96.5538 17.5658C96.4426 17.6492 96.2062 17.6909 95.8448 17.6909C95.6502 17.6909 95.4973 17.677 95.3862 17.6492L94.427 17.399L93.4679 17.0654C93.0787 16.9542 92.7729 16.8569 92.5505 16.7735C92.3559 16.6901 92.1335 16.4121 91.8833 15.9395C91.8277 15.8005 91.7721 15.6615 91.7165 15.5225C91.6609 15.3835 91.6053 15.2723 91.5497 15.1889L91.3829 14.5217L91.508 14.2298ZM94.9274 15.6476L95.1359 15.6893C95.3583 15.6337 95.6225 15.592 95.9283 15.5642C96.2341 15.5086 96.4565 15.4391 96.5955 15.3557L97.0125 15.0638L97.3461 14.6885L97.4712 14.3132L96.9708 12.395L96.2619 12.1031L96.1368 12.1865C96.0812 12.2143 95.9978 12.3255 95.8866 12.5201C95.7754 12.6869 95.6502 12.8954 95.5112 13.1456C95.4001 13.3958 95.2749 13.6599 95.1359 13.9379C95.0247 14.2159 94.9413 14.4522 94.8857 14.6468L94.9274 15.6476ZM93.3845 11.978C93.2455 12.117 93.0787 12.3672 92.8841 12.7286C92.6895 13.09 92.5922 13.4097 92.5922 13.6877C92.5922 13.7989 92.6061 13.8823 92.6339 13.9379L92.7173 13.7294L93.3845 12.5201C93.4957 12.3533 93.5652 12.2282 93.593 12.1448L93.3845 11.978Z" fill="white"/>
<path d="M112.474 6.80716C112.697 6.75156 112.85 6.68206 112.933 6.59866C113.044 6.51526 113.169 6.47356 113.308 6.47356C113.364 6.47356 113.406 6.48746 113.434 6.51526C113.461 6.51526 113.503 6.51526 113.559 6.51526L114.309 6.80716C114.393 6.86276 114.434 6.96006 114.434 7.09906C114.462 7.57166 114.212 8.08596 113.684 8.64196C113.183 9.19797 112.544 9.96247 111.765 10.9355L110.348 12.6869V12.7703L112.308 14.5217L112.808 15.1472H113.016C113.072 15.175 113.142 15.2584 113.225 15.3974C113.336 15.5086 113.42 15.5781 113.475 15.6059L113.6 16.0646C113.684 16.148 113.823 16.2592 114.017 16.3982C114.212 16.5094 114.351 16.5928 114.434 16.6484L114.268 16.8569L113.851 16.8152L114.518 17.1905L114.685 17.1488C114.685 17.121 114.698 17.1071 114.726 17.1071C114.837 17.1071 114.949 17.1905 115.06 17.3573V17.4824H114.851C114.74 17.4824 114.671 17.4963 114.643 17.5241C114.643 17.5241 114.573 17.538 114.434 17.5658L114.476 17.6909C114.476 17.7187 114.504 17.7604 114.559 17.816L114.601 17.8577C114.657 17.9967 114.685 18.0662 114.685 18.0662C114.685 18.0662 114.698 18.0662 114.726 18.0662L114.851 18.1079V17.9828C114.907 17.9828 114.99 17.9689 115.101 17.9411C115.24 17.9133 115.366 17.8994 115.477 17.8994C115.588 17.8994 115.644 17.9272 115.644 17.9828V18.1496C115.644 18.1774 115.658 18.2052 115.685 18.233C115.63 18.2886 115.602 18.372 115.602 18.4832V18.6917L115.81 18.6083L116.102 18.9419C116.186 19.0531 116.255 19.1365 116.311 19.1921C116.394 19.2477 116.464 19.3311 116.519 19.4423L116.561 19.6091L117.52 20.2763C117.492 20.3597 117.395 20.4848 117.228 20.6516C117.061 20.8462 116.853 21.0269 116.603 21.1937C116.38 21.3883 116.144 21.5412 115.894 21.6524C115.671 21.7914 115.463 21.8609 115.268 21.8609C115.213 21.8609 115.129 21.8331 115.018 21.7775C114.907 21.7219 114.81 21.6941 114.726 21.6941H114.643C114.587 21.6941 114.545 21.6941 114.518 21.6941C114.49 21.7219 114.448 21.7497 114.393 21.7775C114.254 21.6663 114.129 21.5134 114.017 21.3188C113.906 21.152 113.739 20.9991 113.517 20.8601L113.35 20.8184L113.1 20.5682C112.822 20.2902 112.586 20.04 112.391 19.8176C112.196 19.623 112.016 19.4284 111.849 19.2338C111.71 19.067 111.557 18.8863 111.39 18.6917C111.251 18.4693 111.084 18.2191 110.89 17.9411C110.612 17.6631 110.306 17.3851 109.972 17.1071C109.667 16.8013 109.361 16.5372 109.055 16.3148C108.777 16.0646 108.541 15.87 108.346 15.731C108.151 15.5642 108.04 15.4808 108.012 15.4808C107.873 15.4808 107.762 15.5364 107.679 15.6476C107.595 15.731 107.47 15.8561 107.304 16.0229L107.262 15.8144C107.262 15.7866 107.248 15.7727 107.22 15.7727C107.192 15.7727 107.137 15.8144 107.053 15.8978C106.97 15.9812 106.873 16.0785 106.761 16.1897C106.678 16.2731 106.595 16.3704 106.511 16.4816C106.428 16.565 106.372 16.6206 106.344 16.6484L106.47 16.7735C106.525 16.6901 106.581 16.5928 106.636 16.4816C106.72 16.3426 106.817 16.2731 106.928 16.2731H107.053V16.4399C107.053 16.4677 106.97 16.5789 106.803 16.7735C106.664 16.9403 106.511 17.0793 106.344 17.1905L104.093 19.1921L103.509 19.067L103.175 18.65L102.591 17.5658C102.73 17.4268 102.869 17.26 103.008 17.0654C103.175 16.8708 103.342 16.7318 103.509 16.6484L105.385 14.7302L106.011 13.8128L105.927 13.4792L106.011 13.3958L106.178 13.4792L106.261 13.2707C105.677 12.6035 105.232 11.978 104.927 11.3942C104.621 10.7826 104.176 10.2127 103.592 9.68447C103.564 9.68447 103.495 9.55937 103.384 9.30917C103.273 9.03117 103.189 8.89216 103.134 8.89216L103.05 8.80876C102.995 8.64196 102.911 8.47516 102.8 8.30836C102.689 8.11376 102.619 7.93306 102.591 7.76626V7.64116C102.619 7.47436 102.717 7.27976 102.883 7.05736C103.05 6.80716 103.273 6.68206 103.551 6.68206L104.76 6.39016C105.149 6.39016 105.441 6.55696 105.636 6.89056C105.858 7.22416 106.094 7.58556 106.344 7.97476C106.344 8.00256 106.414 8.05816 106.553 8.14156C106.692 8.19716 106.789 8.26666 106.845 8.35006C107.012 8.51686 107.165 8.72536 107.304 8.97556C107.443 9.19797 107.568 9.42037 107.679 9.64277C107.79 9.83737 107.887 10.0181 107.971 10.1849C108.082 10.3517 108.193 10.449 108.304 10.4768L108.721 10.9355C108.805 10.8521 108.902 10.8104 109.013 10.8104L109.138 11.0189C109.222 10.7409 109.305 10.5602 109.389 10.4768C109.5 10.3656 109.639 10.2405 109.806 10.1015C110 9.93467 110.236 9.69837 110.514 9.39257C110.82 9.05897 111.209 8.54466 111.682 7.84966L111.807 7.68286L111.682 7.59946C111.71 7.59946 111.724 7.58556 111.724 7.55776V7.39096C111.752 7.33536 111.877 7.23806 112.099 7.09906C112.321 6.96006 112.447 6.86276 112.474 6.80716Z" fill="white"/>
<defs>
<clipPath id="clip0">
<rect width="24" height="24" fill="white"/>
</clipPath>
</defs>
</svg>
